<svg width="48" height="48" viewBox="0 0 48 48" fill="none" xmlns="http://www.w3.org/2000/svg">
<path d="M45.1346 22.8347L40.5 25.152L34.5 13.6616L39.1817 11.3207C39.5335 11.1448 39.9402 11.1141 40.3144 11.2352C40.6885 11.3563 41.0002 11.6195 41.1822 11.9681L45.7934 20.7987C45.8856 20.9753 45.9417 21.1685 45.9584 21.367C45.9752 21.5655 45.9522 21.7653 45.8909 21.9549C45.8296 22.1444 45.7311 22.3198 45.6012 22.4709C45.4714 22.6219 45.3127 22.7456 45.1346 22.8347V22.8347Z" stroke="#0397D7" stroke-width="2" stroke-linecap="round" stroke-linejoin="round"/>
<path d="M7.49987 24.9509L2.86531 22.6336C2.68714 22.5446 2.5285 22.4209 2.39864 22.2698C2.26879 22.1188 2.17032 21.9433 2.10899 21.7538C2.04766 21.5643 2.0247 21.3644 2.04144 21.1659C2.05818 20.9674 2.11429 20.7743 2.20649 20.5977L6.81767 11.767C6.99969 11.4184 7.31134 11.1552 7.68549 11.0342C8.05965 10.9131 8.46639 10.9438 8.81813 11.1197L13.4999 13.4605L7.49987 24.9509Z" stroke="#0397D7" stroke-width="2" stroke-linecap="round" stroke-linejoin="round"/>
<path d="M40.5 25.1519L37.5 28.6615L30.6005 35.561C30.4174 35.7441 30.1899 35.8767 29.9403 35.9459C29.6906 36.015 29.4274 36.0183 29.1761 35.9555L18.3092 33.2388C18.1053 33.1878 17.9145 33.0946 17.749 32.9652L7.5 24.9509" stroke="#0397D7" stroke-width="2" stroke-linecap="round" stroke-linejoin="round"/>
<path d="M37.5001 28.6615L29.2501 22.6615L26.8501 24.4615C25.8115 25.2404 24.5483 25.6615 23.2501 25.6615C21.9519 25.6615 20.6887 25.2404 19.6501 24.4615L18.6337 23.6992C18.4618 23.5703 18.3196 23.4059 18.2167 23.2172C18.1138 23.0285 18.0527 22.8199 18.0375 22.6055C18.0222 22.3912 18.0532 22.176 18.1284 21.9747C18.2035 21.7734 18.3211 21.5905 18.473 21.4385L25.8107 14.1008C25.95 13.9616 26.1154 13.8511 26.2974 13.7757C26.4794 13.7003 26.6744 13.6615 26.8714 13.6615H34.5001" stroke="#0397D7" stroke-width="2" stroke-linecap="round" stroke-linejoin="round"/>
<path d="M13.6079 13.4606L23.2304 10.6553C23.5741 10.5551 23.9424 10.5811 24.2686 10.7287L30.7502 13.6615" stroke="#0397D7" stroke-width="2" stroke-linecap="round" stroke-linejoin="round"/>
<path d="M21 39.9115L15.3489 38.4988C15.1195 38.4414 14.907 38.3307 14.7286 38.1756L10.5 34.5" stroke="#0397D7" stroke-width="2" stroke-linecap="round" stroke-linejoin="round"/>
</svg>
