<svg width="48" height="48" viewBox="0 0 48 48" fill="none" xmlns="http://www.w3.org/2000/svg">
<path d="M42.273 24H36.273C35.4773 24 34.7143 24.3161 34.1516 24.8787C33.589 25.4413 33.273 26.2044 33.273 27V34.5C33.273 35.2957 33.589 36.0587 34.1516 36.6213C34.7143 37.1839 35.4773 37.5 36.273 37.5H39.273C40.0686 37.5 40.8317 37.1839 41.3943 36.6213C41.9569 36.0587 42.273 35.2957 42.273 34.5V24ZM42.273 24C42.273 21.6247 41.8028 19.2729 40.8897 17.0802C39.9766 14.8875 38.6385 12.8971 36.9525 11.2239C35.2666 9.55073 33.2662 8.22776 31.0666 7.33127C28.867 6.43478 26.5117 5.98251 24.1365 6.00052C21.7613 5.98251 19.406 6.43478 17.2064 7.33127C15.0068 8.22776 13.0064 9.55073 11.3204 11.2239C9.63449 12.8971 8.29639 14.8875 7.38326 17.0802C6.47012 19.2729 6 21.6247 6 24V34.5C6 35.2957 6.31607 36.0587 6.87868 36.6213C7.44129 37.1839 8.20435 37.5 9 37.5H12C12.7956 37.5 13.5587 37.1839 14.1213 36.6213C14.6839 36.0587 15 35.2957 15 34.5V27C15 26.2044 14.6839 25.4413 14.1213 24.8787C13.5587 24.3161 12.7956 24 12 24H6" stroke="#0397D7" stroke-width="2" stroke-linecap="round" stroke-linejoin="round"/>
<path d="M42.273 34.5V39C42.273 40.5913 41.6408 42.1174 40.5156 43.2426C39.3904 44.3679 37.8643 45 36.273 45H25.5" stroke="#0397D7" stroke-width="2" stroke-linecap="round" stroke-linejoin="round"/>
</svg>
