<svg width="28" height="28" viewBox="0 0 28 28" fill="none"
    xmlns="http://www.w3.org/2000/svg">
    <g id="menu">
        <path id="Vector (Stroke)" fill-rule="evenodd" clip-rule="evenodd" d="M2.33337 13.9997C2.33337 13.3553 2.85571 12.833 3.50004 12.833H24.5C25.1444 12.833 25.6667 13.3553 25.6667 13.9997C25.6667 14.644 25.1444 15.1663 24.5 15.1663H3.50004C2.85571 15.1663 2.33337 14.644 2.33337 13.9997Z" fill="#F8F3ED"/>
        <path id="Vector (Stroke)_2" fill-rule="evenodd" clip-rule="evenodd" d="M2.33337 6.99967C2.33337 6.35534 2.85571 5.83301 3.50004 5.83301H24.5C25.1444 5.83301 25.6667 6.35534 25.6667 6.99967C25.6667 7.64401 25.1444 8.16634 24.5 8.16634H3.50004C2.85571 8.16634 2.33337 7.64401 2.33337 6.99967Z" fill="#F8F3ED"/>
        <path id="Vector (Stroke)_3" fill-rule="evenodd" clip-rule="evenodd" d="M2.33337 20.9997C2.33337 20.3553 2.85571 19.833 3.50004 19.833H24.5C25.1444 19.833 25.6667 20.3553 25.6667 20.9997C25.6667 21.644 25.1444 22.1663 24.5 22.1663H3.50004C2.85571 22.1663 2.33337 21.644 2.33337 20.9997Z" fill="#F8F3ED"/>
    </g>
</svg>
