<svg width="40" height="40" viewBox="0 0 40 40" fill="none" xmlns="http://www.w3.org/2000/svg">
<path d="M5.00016 35C10.0002 35 16.6668 33.3333 16.6668 21.6667V8.33334C16.6668 6.25 15.4068 4.97167 13.3335 5H6.66683C4.5835 5 3.3335 6.25 3.3335 8.28667V18.3333C3.3335 20.4167 4.5835 21.6667 6.66683 21.6667C8.3335 21.6667 8.3335 21.6667 8.3335 23.3333V25C8.3335 26.6667 6.66683 28.3333 5.00016 28.3333C3.3335 28.3333 3.3335 28.3467 3.3335 30.0517V33.3333C3.3335 35 3.3335 35 5.00016 35ZM25.0002 35C30.0002 35 36.6668 33.3333 36.6668 21.6667V8.33334C36.6668 6.25 35.4052 4.97167 33.3335 5H26.6668C24.5835 5 23.3335 6.25 23.3335 8.28667V18.3333C23.3335 20.4167 24.5835 21.6667 26.6668 21.6667H27.9168C27.9168 25.4167 28.3335 28.3333 23.3335 28.3333V33.3333C23.3335 35 23.3335 35 25.0002 35Z" stroke="black" stroke-opacity="0.24" stroke-width="2" stroke-linecap="round" stroke-linejoin="round"/>
</svg>
