<svg width="48" height="48" viewBox="0 0 48 48" fill="none" xmlns="http://www.w3.org/2000/svg">
<path d="M26.0106 32.8997L22.4074 42.6796C22.3014 42.9675 22.1095 43.216 21.8579 43.3915C21.6062 43.567 21.3067 43.6611 20.9999 43.6611C20.6931 43.6611 20.3936 43.567 20.142 43.3915C19.8903 43.216 19.6985 42.9675 19.5924 42.6796L15.9892 32.8997C15.9142 32.696 15.7959 32.511 15.6424 32.3576C15.4889 32.2041 15.304 32.0857 15.1003 32.0107L5.32031 28.4075C5.0324 28.3015 4.78395 28.1097 4.60845 27.858C4.43296 27.6063 4.33887 27.3069 4.33887 27C4.33887 26.6932 4.43296 26.3938 4.60845 26.1421C4.78395 25.8904 5.0324 25.6986 5.32031 25.5925L15.1003 21.9894C15.304 21.9143 15.4889 21.796 15.6424 21.6425C15.7959 21.489 15.9142 21.3041 15.9892 21.1004L19.5924 11.3204C19.6985 11.0325 19.8903 10.7841 20.142 10.6086C20.3936 10.4331 20.6931 10.339 20.9999 10.339C21.3067 10.339 21.6062 10.4331 21.8579 10.6086C22.1095 10.7841 22.3014 11.0325 22.4074 11.3204L26.0106 21.1004C26.0856 21.3041 26.204 21.489 26.3574 21.6425C26.5109 21.796 26.6959 21.9143 26.8995 21.9894L36.6795 25.5925C36.9674 25.6986 37.2159 25.8904 37.3914 26.1421C37.5669 26.3938 37.6609 26.6932 37.6609 27C37.6609 27.3069 37.5669 27.6063 37.3914 27.858C37.2159 28.1097 36.9674 28.3015 36.6795 28.4075L26.8995 32.0107C26.6959 32.0857 26.5109 32.2041 26.3574 32.3576C26.204 32.511 26.0856 32.696 26.0106 32.8997V32.8997Z" stroke="#0397D7" stroke-width="2" stroke-linecap="round" stroke-linejoin="round"/>
<path d="M33 3V12" stroke="#0397D7" stroke-width="2" stroke-linecap="round" stroke-linejoin="round"/>
<path d="M37.5 7.5H28.5" stroke="#0397D7" stroke-width="2" stroke-linecap="round" stroke-linejoin="round"/>
<path d="M42 13.5V19.5" stroke="#0397D7" stroke-width="2" stroke-linecap="round" stroke-linejoin="round"/>
<path d="M45 16.5H39" stroke="#0397D7" stroke-width="2" stroke-linecap="round" stroke-linejoin="round"/>
</svg>
