<svg width="80" height="81" viewBox="0 0 80 81" fill="none"
    xmlns="http://www.w3.org/2000/svg">
    <path d="M47.9749 41.599L51.1566 42.8537L47.9749 44.1084L46.7201 47.2898L45.4653 44.1084L42.2837 42.8537L45.4653 41.599L46.7201 38.4176L47.9749 41.599Z" stroke="#0397D7" stroke-width="1.24878" stroke-miterlimit="10" stroke-linecap="round" stroke-linejoin="round"/>
    <path d="M31.5692 41.8496H27.1914V16.5003H31.5692V41.8496Z" stroke="#0397D7" stroke-width="1.24878" stroke-miterlimit="10" stroke-linecap="round" stroke-linejoin="round"/>
    <path d="M41.042 50.356H17.7188V47.8245C17.7188 46.5296 18.7684 45.48 20.0632 45.48H38.6974C39.9923 45.48 41.042 46.5296 41.042 47.8245V50.356Z" stroke="#0397D7" stroke-width="1.24878" stroke-miterlimit="10" stroke-linecap="round" stroke-linejoin="round"/>
    <path d="M41.042 64.5H17.7188V50.3557H41.042V64.5ZM35.0223 45.4798H23.7384V41.8493H35.0223V45.4798Z" stroke="#0397D7" stroke-width="1.24878" stroke-miterlimit="10" stroke-linecap="round" stroke-linejoin="round"/>
    <path d="M21.9072 58.3371V64.1948" stroke="#0397D7" stroke-width="1.24878" stroke-miterlimit="10" stroke-linecap="round" stroke-linejoin="round"/>
    <path d="M26.8892 58.3371V64.1948" stroke="#0397D7" stroke-width="1.24878" stroke-miterlimit="10" stroke-linecap="round" stroke-linejoin="round"/>
    <path d="M31.8711 58.3371V64.1948" stroke="#0397D7" stroke-width="1.24878" stroke-miterlimit="10" stroke-linecap="round" stroke-linejoin="round"/>
    <path d="M36.853 58.3371V64.1948" stroke="#0397D7" stroke-width="1.24878" stroke-miterlimit="10" stroke-linecap="round" stroke-linejoin="round"/>
    <path d="M62.2812 62.983C62.2812 61.1898 61.1926 59.4001 59.5766 58.4502C59.5769 58.4325 59.577 58.4147 59.577 58.3969C59.577 56.1813 57.7809 54.3852 55.5653 54.3852C54.9001 54.3842 54.2451 54.5494 53.6599 54.8658C52.2718 53.2016 50.0881 52.1871 47.8347 52.1871C44.6976 52.1871 42.0035 54.1484 41.042 56.8549V64.5H62.0362C62.1988 64.0108 62.2815 63.4986 62.2812 62.983Z" stroke="#0397D7" stroke-width="1.24878" stroke-miterlimit="10" stroke-linecap="round" stroke-linejoin="round"/>
</svg>
