<svg width="80" height="81" viewBox="0 0 80 81" fill="none" xmlns="http://www.w3.org/2000/svg">
<path d="M33.2408 64.5H10.8634L8.69287 37.1863H35.4113L33.2408 64.5Z" stroke="#0397D7" stroke-width="1.68363" stroke-miterlimit="10" stroke-linecap="round" stroke-linejoin="round"/>
<path d="M22.055 55.9121H22.0491C14.6727 55.9121 8.69287 49.9322 8.69287 42.5558V37.186H35.4112V42.5558C35.4112 49.9322 29.4316 55.9121 22.055 55.9121Z" stroke="#0397D7" stroke-width="1.68363" stroke-miterlimit="10" stroke-linecap="round" stroke-linejoin="round"/>
<path d="M36.4626 37.1863H7.64258V32.1106H36.4626V37.1863Z" stroke="#0397D7" stroke-width="1.68363" stroke-miterlimit="10" stroke-linecap="round" stroke-linejoin="round"/>
<path d="M57.2314 43.6114L57.1704 48.9832" stroke="#0397D7" stroke-width="1.68363" stroke-miterlimit="10" stroke-linecap="round" stroke-linejoin="round"/>
<path d="M70.5349 43.2561H43.6067C42.6004 43.2561 41.7847 42.4403 41.7847 41.434V34.0233C41.7847 33.017 42.6004 32.2013 43.6067 32.2013H70.5349C71.5412 32.2013 72.3571 33.017 72.3571 34.0233V41.434C72.3571 42.4403 71.5412 43.2561 70.5349 43.2561Z" stroke="#0397D7" stroke-width="1.68363" stroke-miterlimit="10" stroke-linecap="round" stroke-linejoin="round"/>
<path d="M47.2217 37.7283H66.9203" stroke="#0397D7" stroke-width="1.68363" stroke-miterlimit="10" stroke-linecap="round" stroke-linejoin="round"/>
<path d="M60.0026 64.5H54.1396V49.3828H60.0026V64.5Z" stroke="#0397D7" stroke-width="1.68363" stroke-miterlimit="10" stroke-linecap="round" stroke-linejoin="round"/>
<path d="M33.7075 23.758C33.7075 25.7889 32.0604 27.4353 30.0285 27.4353C27.9967 27.4353 26.3496 25.7889 26.3496 23.758C26.3496 21.7271 27.9967 20.0807 30.0285 20.0807C32.0604 20.0807 33.7075 21.7271 33.7075 23.758Z" stroke="#0397D7" stroke-width="1.68363" stroke-miterlimit="10" stroke-linecap="round" stroke-linejoin="round"/>
<path d="M42.1913 18.9518C42.1913 20.3057 41.0931 21.4033 39.7387 21.4033C38.3842 21.4033 37.2861 20.3057 37.2861 18.9518C37.2861 17.5978 38.3842 16.5001 39.7387 16.5001C41.0931 16.5001 42.1913 17.5978 42.1913 18.9518Z" stroke="#0397D7" stroke-width="1.68363" stroke-miterlimit="10" stroke-linecap="round" stroke-linejoin="round"/>
</svg>
