<svg width="80" height="80" viewBox="0 0 80 80" fill="none" xmlns="http://www.w3.org/2000/svg">
<path d="M21.4517 32.281L33.8185 49.0576L50.8829 36.244L35.96 16.0001" stroke="#0397D7" stroke-width="1.24878" stroke-miterlimit="10" stroke-linecap="round" stroke-linejoin="round"/>
<path d="M21.4517 64H58.5482V16H21.4517V64Z" stroke="#0397D7" stroke-width="1.24878" stroke-miterlimit="10" stroke-linecap="round" stroke-linejoin="round"/>
<path d="M51.1268 36.0612L54.6463 40.7482C56.0938 42.6759 55.7047 45.4121 53.7769 46.8596L52.0816 48.1326L54.6451 51.5465L47.465 56.9382L44.9014 53.5243L43.2061 54.7974C41.2785 56.2449 38.5423 55.8557 37.0948 53.928L33.5752 49.2409L51.1268 36.0612Z" stroke="#0397D7" stroke-width="1.24878" stroke-miterlimit="10" stroke-linecap="round" stroke-linejoin="round"/>
<path d="M52.6022 34.9529L32.0991 50.3491" stroke="#0397D7" stroke-width="1.24878" stroke-miterlimit="10" stroke-linecap="round" stroke-linejoin="round"/>
<path d="M55.2446 64L49.0488 55.7483L53.0615 52.7356L58.548 60.0429" stroke="#0397D7" stroke-width="1.24878" stroke-miterlimit="10" stroke-linecap="round" stroke-linejoin="round"/>
<path d="M39.2461 27.9273L44.9731 35.8484" stroke="#0397D7" stroke-width="1.24878" stroke-miterlimit="10" stroke-linecap="round" stroke-linejoin="round"/>
<path d="M29.7505 26.8363L35.4775 34.7573" stroke="#0397D7" stroke-width="1.24878" stroke-miterlimit="10" stroke-linecap="round" stroke-linejoin="round"/>
<path d="M44.2632 54.0034L48.6704 50.3145" stroke="#0397D7" stroke-width="1.24878" stroke-miterlimit="10" stroke-linecap="round" stroke-linejoin="round"/>
</svg>
