<svg width="206" height="73" viewBox="0 0 206 73" fill="none" xmlns="http://www.w3.org/2000/svg">
<path d="M29.1107 0H30.9566C38.2179 0.305185 44.5468 2.77784 49.9433 7.41797C57.1435 13.609 61.074 23.0255 60.3701 32.5071C59.2613 47.46 47.5523 59.3228 32.5884 60.594C32.549 60.5973 32.5281 60.5797 32.5256 60.5411C32.2721 55.8354 32.0321 51.0644 32.1441 46.3537C32.2401 42.2928 32.7619 38.3623 36.1226 35.6008C38.1371 33.9457 40.5749 32.9255 43.0656 32.1183C44.9303 31.5137 46.8373 30.9369 48.7866 30.3881C48.7989 30.385 48.8098 30.3778 48.8174 30.3677C48.8251 30.3576 48.829 30.3451 48.8286 30.3324C48.8282 30.3197 48.8234 30.3076 48.8151 30.298C48.8067 30.2884 48.7954 30.282 48.7829 30.2798C48.2611 30.1699 47.7139 30.0287 47.1413 29.8565C44.4623 29.0492 41.8288 28.1644 39.3701 26.8034C33.75 23.69 31.7454 17.7229 30.1838 11.9108C30.0985 11.5925 30.0144 11.5929 29.9315 11.9121C29.3589 14.1329 28.6029 16.3824 27.6636 18.6606C26.0515 22.5714 23.5436 25.5777 19.6426 27.4039C13.2255 30.4074 6.8117 33.4182 0.401171 36.4364C0.306826 36.4807 0.20961 36.5279 0.109522 36.5779C0.069323 36.5976 0.0451215 36.5857 0.0369176 36.5422L0 36.3564V26.8501C0.0615293 25.5244 0.285906 24.1314 0.67313 22.6711C4.13477 9.62687 15.6223 0.518076 29.1107 0Z" fill="#0397D7"/>
<path d="M142.379 29.7531L140.668 29.71C140.622 29.7084 140.598 29.6846 140.598 29.6386L140.583 24.6179C140.583 24.5727 140.606 24.5502 140.65 24.5502H142.783C142.835 24.5501 142.886 24.5327 142.928 24.5007C142.97 24.4687 143 24.4238 143.014 24.373L143.98 20.7551C143.989 20.7214 144.011 20.7046 144.046 20.7046L149.125 20.7034C149.167 20.7034 149.188 20.7247 149.188 20.7674L149.205 24.4948C149.205 24.5021 149.206 24.5093 149.209 24.516C149.212 24.5227 149.216 24.5288 149.221 24.534C149.226 24.5391 149.232 24.5432 149.239 24.546C149.246 24.5487 149.253 24.5502 149.26 24.5502H154.931C154.972 24.5502 154.992 24.5707 154.992 24.6117V29.6571C154.992 29.6981 154.972 29.7186 154.931 29.7186L149.273 29.7432C149.223 29.7432 149.199 29.7679 149.199 29.8171C149.192 33.079 149.193 36.3375 149.201 39.5929C149.206 41.899 150.244 42.6373 152.478 42.3408C153.217 42.2423 153.976 42.1143 154.754 41.9568C154.843 41.9388 154.888 41.9753 154.888 42.0663L154.905 47.1856C154.905 47.2157 154.895 47.245 154.877 47.2686C154.858 47.2923 154.832 47.309 154.803 47.316C152.128 47.9805 148.886 48.2599 146.239 47.2902C143.341 46.2282 142.711 43.3523 142.663 40.6081C142.602 37.1058 142.59 33.5737 142.627 30.0115C142.628 29.9443 142.602 29.8794 142.556 29.8311C142.509 29.7827 142.446 29.7547 142.379 29.7531Z" fill="#231F20"/>
<path d="M102.893 27.2734C104.634 25.6491 107.266 24.7446 109.597 24.5108C109.607 24.5099 109.617 24.5111 109.627 24.5143C109.636 24.5175 109.645 24.5226 109.653 24.5294C109.66 24.5361 109.666 24.5442 109.67 24.5533C109.674 24.5624 109.676 24.5722 109.676 24.5821V30.4508C109.676 30.4885 109.657 30.5078 109.619 30.5086C107.623 30.5308 104.628 31.1978 103.154 32.6265C103.125 32.6536 103.111 32.6868 103.111 32.7262L103.085 47.4083C103.084 47.4493 103.063 47.4698 103.022 47.4698H96.5985C96.555 47.4698 96.5333 47.4485 96.5333 47.4058L96.5259 24.6498C96.5259 24.6408 96.5276 24.6318 96.531 24.6235C96.5344 24.6151 96.5394 24.6075 96.5457 24.6011C96.552 24.5947 96.5595 24.5896 96.5677 24.5862C96.5759 24.5827 96.5847 24.5809 96.5936 24.5809H102.15C102.187 24.581 102.224 24.594 102.253 24.6177C102.282 24.6415 102.302 24.6745 102.31 24.7114L102.828 27.2525C102.829 27.2593 102.832 27.2656 102.837 27.2708C102.842 27.276 102.848 27.2798 102.854 27.282C102.861 27.2841 102.868 27.2844 102.875 27.2829C102.882 27.2814 102.888 27.2781 102.893 27.2734Z" fill="#231F20"/>
<path d="M81.9043 30.334L81.876 52.4058C81.876 52.4583 81.8497 52.4845 81.7972 52.4845H75.4043C75.3633 52.4845 75.3428 52.464 75.3428 52.423V24.6192C75.3428 24.574 75.3653 24.5515 75.4105 24.5515C77.4221 24.5482 80.7024 24.5494 85.2515 24.5552C90.3362 24.5625 94.0415 27.4557 94.5621 32.6733C95.0728 37.7753 93.8926 42.822 88.3156 44.3701C86.6125 44.8426 85.1764 44.7958 83.5299 44.7958C83.4864 44.7958 83.4646 44.7741 83.4646 44.7306V39.1302C83.4646 39.0826 83.4884 39.0597 83.536 39.0613C85.073 39.1093 86.2495 39.0921 87.1502 37.9858C88.1089 36.8069 88.1852 34.7026 87.923 33.2234C87.3065 29.7409 84.582 30.27 81.9658 30.2725C81.9248 30.2725 81.9043 30.293 81.9043 30.334Z" fill="#231F20"/>
<path d="M132.559 41.5335C133.05 40.1244 131.652 39.4661 130.561 39.2433C127.213 38.5567 122.747 38.2835 121.529 34.3554C121.14 33.1035 121.041 31.754 121.231 30.3068C121.95 24.859 127.871 24.1674 132.197 24.6695C134.473 24.9337 136.619 25.7988 138.636 27.2648C138.67 27.2886 138.678 27.319 138.659 27.3559L136.516 31.4611C136.497 31.4997 136.468 31.5087 136.43 31.4882C134.274 30.3474 132.239 29.6152 129.734 29.7248C129.252 29.7461 128.813 29.849 128.418 30.0336C127.41 30.5062 127.524 32.0223 128.452 32.5379C128.761 32.7093 129.158 32.8443 129.643 32.9427C131.991 33.4153 135.142 33.7635 137.044 35.3473C138.729 36.7489 139.28 39.0563 139.172 41.1754C138.971 45.1095 136.06 47.1314 132.431 47.6913C128.269 48.3324 124.005 47.5584 120.452 45.256C120.42 45.2346 120.412 45.2067 120.429 45.1723L122.518 40.8013C122.522 40.7925 122.528 40.7847 122.536 40.7783C122.543 40.7719 122.551 40.767 122.561 40.7639C122.57 40.7608 122.579 40.7596 122.589 40.7603C122.599 40.761 122.608 40.7636 122.617 40.768C124.95 41.9802 127.019 42.8034 129.733 42.7333C130.688 42.7074 132.205 42.5462 132.559 41.5335Z" fill="#231F20"/>
<path d="M171.923 26.8219C174.286 24.6634 177.545 24.0469 180.526 24.9501C183.875 25.9654 184.748 29.3987 184.76 32.4813C184.78 37.4529 184.782 42.4253 184.766 47.3985C184.766 47.4469 184.742 47.4711 184.694 47.4711L178.227 47.4699C178.217 47.4699 178.207 47.4657 178.2 47.4583C178.193 47.4509 178.189 47.4409 178.189 47.4305C178.189 42.5754 178.189 37.7199 178.186 32.864C178.185 30.2601 175.727 29.7999 173.899 30.8582C173.303 31.2027 172.709 31.6396 172.293 32.1749C172.265 32.211 172.251 32.2516 172.251 32.2967V47.4083C172.251 47.4493 172.231 47.4699 172.19 47.4699H165.752C165.706 47.4699 165.682 47.4469 165.682 47.4009L165.67 24.7028C165.67 24.6421 165.7 24.6117 165.761 24.6117H171.369C171.41 24.6117 171.435 24.6318 171.444 24.672L171.903 26.8157C171.903 26.8177 171.904 26.8195 171.906 26.821C171.907 26.8224 171.909 26.8235 171.911 26.8241C171.913 26.8247 171.915 26.8248 171.917 26.8245C171.919 26.8241 171.921 26.8232 171.923 26.8219Z" fill="#231F20"/>
<path d="M206 32.8948V38.3155L194.862 38.3278C194.822 38.3278 194.802 38.3081 194.802 38.2688V34.182C194.802 34.1426 194.821 34.1225 194.861 34.1217L199.445 34.1081C199.491 34.1081 199.516 34.0852 199.518 34.0392C199.675 31.3713 198.326 29.5341 195.448 30.1543C193.701 30.5321 193.142 32.1675 193.153 33.75C193.165 35.7502 193.213 37.5649 193.297 39.1941C193.572 44.589 200.34 41.9273 202.958 40.6352C202.974 40.6276 202.991 40.6264 203.008 40.6317C203.024 40.637 203.038 40.6484 203.045 40.6635L205.307 45.0271C205.328 45.0681 205.32 45.1018 205.283 45.128C201.967 47.4177 198.289 48.291 194.247 47.7479C193.599 47.661 192.874 47.4616 192.07 47.1499C188.356 45.7064 186.752 42.5512 186.698 38.7241C186.663 36.2395 186.472 33.4572 187.038 31.0797C187.948 27.2562 190.977 25.051 194.768 24.6437C198.618 24.2302 202.693 25.1876 204.817 28.6825C205.589 29.95 205.983 31.3541 206 32.8948Z" fill="#231F20"/>
<path d="M118.219 24.6117H111.655C111.615 24.6117 111.583 24.6436 111.583 24.6831V47.4907C111.583 47.5302 111.615 47.5621 111.655 47.5621H118.219C118.258 47.5621 118.29 47.5302 118.29 47.4907V24.6831C118.29 24.6436 118.258 24.6117 118.219 24.6117Z" fill="#231F20"/>
<path d="M163.548 24.6117H156.959C156.926 24.6117 156.9 24.6381 156.9 24.6708V47.503C156.9 47.5357 156.926 47.5621 156.959 47.5621H163.548C163.58 47.5621 163.607 47.5357 163.607 47.503V24.6708C163.607 24.6381 163.58 24.6117 163.548 24.6117Z" fill="#231F20"/>
<path d="M27.0964 72.3584H0.0751953L0.0887318 44.4672C0.0887318 44.4253 0.10555 44.3917 0.139186 44.3663C0.262244 44.2764 0.46283 44.2297 0.561277 44.1792C9.36899 39.7097 18.1697 35.2439 26.9635 30.7818C26.9779 30.7745 26.9939 30.771 27.0101 30.7715C27.0262 30.7721 27.0419 30.7769 27.0557 30.7852C27.0695 30.7936 27.081 30.8054 27.089 30.8195C27.0969 30.8335 27.1012 30.8494 27.1013 30.8655L27.0964 72.3584Z" fill="#0397D7"/>
<path d="M105.642 57.6467C105.774 59.0976 107.696 59.5049 108.273 58.0885C108.293 58.0401 108.328 58.0204 108.38 58.0294L109.063 58.155C109.071 58.1565 109.078 58.1596 109.085 58.1642C109.091 58.1689 109.097 58.1748 109.101 58.1817C109.105 58.1886 109.107 58.1962 109.108 58.2042C109.109 58.2121 109.108 58.2201 109.105 58.2276C108.404 60.2679 105.048 59.9812 104.77 57.8178C104.523 55.9141 106.099 54.8348 107.858 55.3529C108.513 55.5457 108.924 55.9694 109.093 56.6241C109.108 56.684 109.086 56.7189 109.025 56.7287L108.349 56.8419C108.306 56.8493 108.278 56.8321 108.267 56.7902C108.07 56.0728 107.468 55.7615 106.751 55.9005C105.921 56.063 105.551 56.645 105.642 57.6467Z" fill="#231F20"/>
<path d="M161.802 58.9377C161.357 59.4373 160.769 59.651 160.039 59.5788C157.589 59.3389 157.458 55.7886 159.847 55.2841C160.809 55.081 162.135 55.3702 162.432 56.4125C162.449 56.4708 162.427 56.5061 162.367 56.5184L161.747 56.6488C161.699 56.6587 161.664 56.641 161.644 56.5959C161.105 55.3998 159.371 55.6668 159.062 56.8925C158.513 59.0768 161.343 59.7462 161.772 58.0061C161.776 57.9865 161.777 57.966 161.773 57.9462C161.768 57.9264 161.76 57.9078 161.747 57.8918C161.735 57.8758 161.719 57.8628 161.701 57.8539C161.683 57.8449 161.663 57.8402 161.642 57.84L160.492 57.8314C160.43 57.8314 160.398 57.8006 160.395 57.7391L160.37 57.3564C160.365 57.2875 160.397 57.253 160.466 57.253H162.437C162.478 57.253 162.499 57.2735 162.499 57.3146V59.4065C162.499 59.4476 162.478 59.4681 162.437 59.4681H161.965C161.912 59.4681 161.886 59.4414 161.885 59.3881L161.882 58.9685C161.882 58.8889 161.856 58.8786 161.802 58.9377Z" fill="#231F20"/>
<path d="M95.8577 57.7206L95.8713 59.4262C95.8713 59.4317 95.8702 59.4371 95.8681 59.4422C95.866 59.4473 95.8629 59.4519 95.859 59.4558C95.8551 59.4597 95.8505 59.4627 95.8454 59.4648C95.8403 59.467 95.8349 59.468 95.8294 59.468H95.1034C95.0923 59.468 95.0816 59.4636 95.0738 59.4558C95.0659 59.4479 95.0615 59.4373 95.0615 59.4262L95.064 55.3677C95.064 55.3566 95.0684 55.346 95.0762 55.3381C95.0841 55.3303 95.0947 55.3259 95.1058 55.3259L98.2844 55.316C98.2899 55.316 98.2954 55.3171 98.3004 55.3192C98.3055 55.3213 98.3101 55.3244 98.314 55.3283C98.3179 55.3322 98.321 55.3368 98.3231 55.3419C98.3252 55.3469 98.3263 55.3524 98.3263 55.3579L98.3226 55.8821C98.3226 55.8932 98.3182 55.9038 98.3103 55.9117C98.3025 55.9195 98.2918 55.9239 98.2807 55.9239L95.9119 55.9412C95.901 55.9412 95.8905 55.9454 95.8827 55.953C95.8749 55.9606 95.8703 55.9709 95.87 55.9818L95.8466 57.0635C95.8465 57.0691 95.8474 57.0746 95.8495 57.0799C95.8515 57.0851 95.8546 57.0898 95.8585 57.0939C95.8624 57.0979 95.867 57.1011 95.8722 57.1032C95.8773 57.1054 95.8829 57.1065 95.8885 57.1065L98.1897 57.0819C98.2008 57.0819 98.2114 57.0863 98.2193 57.0942C98.2271 57.102 98.2315 57.1127 98.2315 57.1238V57.6554C98.2315 57.6609 98.2304 57.6663 98.2283 57.6714C98.2262 57.6765 98.2231 57.6811 98.2193 57.685C98.2154 57.6889 98.2108 57.6919 98.2057 57.694C98.2006 57.6961 98.1952 57.6972 98.1897 57.6972L95.9008 57.6775C95.8951 57.6774 95.8894 57.6784 95.8841 57.6805C95.8788 57.6826 95.874 57.6857 95.87 57.6898C95.8659 57.6938 95.8627 57.6986 95.8606 57.7039C95.8585 57.7092 95.8575 57.7149 95.8577 57.7206Z" fill="#231F20"/>
<path d="M100.423 58.5119L100.077 59.4397C100.074 59.4481 100.069 59.4552 100.061 59.4603C100.054 59.4654 100.046 59.4681 100.037 59.468H99.2393C99.2321 59.468 99.2251 59.4662 99.2188 59.4628C99.2125 59.4594 99.2072 59.4545 99.2033 59.4485C99.1994 59.4425 99.197 59.4357 99.1964 59.4286C99.1958 59.4215 99.197 59.4143 99.1999 59.4078L100.974 55.3604C100.978 55.3527 100.983 55.3462 100.99 55.3416C100.997 55.337 101.005 55.3345 101.014 55.3345L101.907 55.3296C101.916 55.3296 101.924 55.3321 101.931 55.3367C101.938 55.3412 101.943 55.3478 101.947 55.3554L103.72 59.4078C103.723 59.4144 103.724 59.4217 103.723 59.4289C103.723 59.4361 103.72 59.443 103.716 59.4491C103.712 59.4551 103.707 59.46 103.7 59.4633C103.694 59.4666 103.686 59.4682 103.679 59.468H102.893C102.884 59.468 102.875 59.4651 102.868 59.4598C102.861 59.4545 102.855 59.4471 102.852 59.4385L102.534 58.5131C102.531 58.5046 102.525 58.4971 102.518 58.4918C102.511 58.4865 102.502 58.4836 102.493 58.4836H100.464C100.455 58.4836 100.446 58.4863 100.439 58.4913C100.432 58.4964 100.426 58.5036 100.423 58.5119ZM101.817 56.9601C101.698 56.6943 101.635 56.3805 101.511 56.0987C101.481 56.0306 101.452 56.031 101.424 56.0999L100.725 57.7821C100.703 57.8338 100.72 57.8605 100.776 57.8621C101.118 57.8753 101.46 57.8773 101.803 57.8683C102.359 57.8548 101.917 57.1779 101.817 56.9601Z" fill="#231F20"/>
<path d="M111.646 55.3278L110.878 55.3265C110.861 55.3264 110.846 55.3407 110.846 55.3584L110.839 59.439C110.839 59.4567 110.853 59.471 110.871 59.4711L111.639 59.4724C111.657 59.4724 111.671 59.4581 111.671 59.4405L111.678 55.3599C111.678 55.3422 111.664 55.3278 111.646 55.3278Z" fill="#231F20"/>
<path d="M114.543 58.8108L116.79 58.8477C116.8 58.8477 116.809 58.8516 116.816 58.8585C116.823 58.8655 116.827 58.8748 116.827 58.8846L116.817 59.431C116.817 59.4359 116.816 59.4407 116.814 59.4451C116.813 59.4496 116.81 59.4537 116.806 59.4571C116.803 59.4606 116.799 59.4633 116.794 59.4651C116.79 59.467 116.785 59.4679 116.78 59.4679H113.711C113.706 59.4679 113.702 59.467 113.697 59.4651C113.693 59.4633 113.689 59.4606 113.685 59.4571C113.682 59.4537 113.679 59.4496 113.677 59.4451C113.675 59.4407 113.674 59.4359 113.674 59.431L113.711 55.3529C113.711 55.348 113.712 55.3432 113.714 55.3387C113.716 55.3342 113.719 55.3302 113.722 55.3268C113.725 55.3233 113.73 55.3206 113.734 55.3187C113.739 55.3169 113.743 55.3159 113.748 55.3159L114.469 55.3135C114.479 55.3135 114.488 55.3174 114.495 55.3243C114.502 55.3312 114.506 55.3406 114.506 55.3504V58.7739C114.506 58.7837 114.51 58.7931 114.517 58.8C114.524 58.8069 114.533 58.8108 114.543 58.8108Z" fill="#231F20"/>
<path d="M119.247 55.3271H118.531C118.499 55.3271 118.473 55.353 118.473 55.385V59.409C118.473 59.4409 118.499 59.4668 118.531 59.4668H119.247C119.279 59.4668 119.305 59.4409 119.305 59.409V55.385C119.305 55.353 119.279 55.3271 119.247 55.3271Z" fill="#231F20"/>
<path d="M122.313 55.9609H120.883C120.873 55.9609 120.863 55.9567 120.855 55.9493C120.848 55.9419 120.844 55.9319 120.844 55.9215V55.3653C120.844 55.3548 120.848 55.3448 120.855 55.3374C120.863 55.33 120.873 55.3259 120.883 55.3259L124.615 55.3173C124.626 55.3173 124.636 55.3212 124.643 55.3284C124.65 55.3355 124.655 55.3452 124.655 55.3554L124.665 55.9203C124.665 55.9255 124.664 55.9308 124.662 55.9357C124.66 55.9406 124.657 55.9451 124.654 55.9489C124.65 55.9527 124.646 55.9557 124.641 55.9577C124.636 55.9598 124.631 55.9609 124.625 55.9609H123.188C123.178 55.9609 123.168 55.965 123.16 55.9724C123.153 55.9798 123.149 55.9898 123.149 56.0002L123.156 59.4286C123.156 59.4391 123.152 59.4491 123.144 59.4565C123.137 59.4639 123.127 59.468 123.117 59.468H122.388C122.378 59.468 122.368 59.4639 122.36 59.4565C122.353 59.4491 122.349 59.4391 122.349 59.4286L122.352 56.0002C122.352 55.9898 122.348 55.9798 122.341 55.9724C122.334 55.965 122.324 55.9609 122.313 55.9609Z" fill="#231F20"/>
<path d="M128.036 57.2112C128.393 56.6361 128.748 56.0586 129.1 55.4785C129.248 55.2337 129.768 55.3087 130.021 55.3666C130.062 55.3756 130.071 55.3977 130.048 55.433C129.552 56.1878 129.055 56.9397 128.558 57.6887C128.276 58.1145 128.375 58.9094 128.419 59.3943C128.423 59.4435 128.401 59.4681 128.353 59.4681H127.615C127.577 59.4681 127.559 59.4492 127.563 59.4115C127.597 58.9131 127.683 58.1145 127.401 57.6801C126.906 56.9187 126.408 56.1558 125.907 55.3912C125.903 55.3842 125.9 55.3762 125.9 55.3679C125.9 55.3596 125.902 55.3513 125.906 55.3439C125.91 55.3365 125.916 55.3303 125.923 55.3258C125.93 55.3214 125.938 55.3189 125.947 55.3186L126.709 55.3136C126.752 55.3128 126.785 55.3309 126.808 55.3678L127.954 57.2112C127.982 57.2555 128.009 57.2555 128.036 57.2112Z" fill="#231F20"/>
<path d="M135.103 56.1036L135.129 59.4249C135.13 59.4659 135.11 59.4856 135.069 59.484L134.406 59.4643C134.322 59.461 134.31 59.4298 134.369 59.3708C134.378 59.3626 134.386 59.3544 134.395 59.3462C134.404 59.3371 134.408 59.3261 134.408 59.3129L134.411 55.4021C134.411 55.3578 134.433 55.3353 134.477 55.3344L135.506 55.3098C135.558 55.309 135.594 55.3328 135.612 55.3812L136.8 58.4897C136.822 58.5479 136.845 58.5479 136.868 58.4897L138.058 55.3898C138.075 55.3447 138.108 55.3221 138.156 55.3221L139.22 55.3308C139.256 55.3308 139.274 55.3492 139.274 55.3861L139.273 59.4065C139.273 59.4475 139.252 59.468 139.21 59.468H138.524C138.477 59.468 138.454 59.4446 138.455 59.3978L138.542 56.1762C138.544 56.0679 138.526 56.0642 138.487 56.1651L137.231 59.4077C137.215 59.4479 137.186 59.468 137.144 59.468H136.493C136.448 59.468 136.417 59.4467 136.4 59.404L135.13 56.0974C135.112 56.049 135.103 56.0511 135.103 56.1036Z" fill="#231F20"/>
<path d="M144.126 58.4836H142.247C142.223 58.4835 142.2 58.4906 142.18 58.504C142.16 58.5174 142.144 58.5364 142.135 58.5587L141.793 59.3967C141.773 59.4443 141.738 59.4681 141.687 59.4681H140.988C140.931 59.4681 140.914 59.4418 140.937 59.3893L142.679 55.4194C142.696 55.3792 142.726 55.3546 142.769 55.3456C143.047 55.2874 143.324 55.2919 143.598 55.3591C143.647 55.3714 143.681 55.4006 143.7 55.4465L145.427 59.4078C145.444 59.448 145.431 59.4681 145.388 59.4681H144.664C144.62 59.4681 144.589 59.4476 144.573 59.4065L144.215 58.5427C144.198 58.5033 144.169 58.4836 144.126 58.4836ZM142.428 57.808C142.426 57.8139 142.425 57.8203 142.425 57.8267C142.426 57.833 142.428 57.8391 142.432 57.8444C142.435 57.8498 142.44 57.8542 142.446 57.8573C142.451 57.8603 142.457 57.862 142.464 57.8621L143.875 57.8745C143.882 57.8744 143.888 57.8729 143.893 57.87C143.899 57.867 143.904 57.8628 143.907 57.8576C143.911 57.8524 143.913 57.8464 143.914 57.8401C143.915 57.8339 143.914 57.8275 143.912 57.8215L143.222 56.0606C143.219 56.0534 143.214 56.0473 143.207 56.043C143.201 56.0387 143.193 56.0364 143.186 56.0364C143.178 56.0364 143.17 56.0387 143.164 56.043C143.157 56.0473 143.152 56.0534 143.149 56.0606L142.428 57.808Z" fill="#231F20"/>
<path d="M150.23 58.4775L150.219 55.4096C150.219 55.367 150.24 55.3448 150.283 55.3432L150.881 55.3136C150.933 55.3112 150.96 55.3358 150.96 55.3875C150.965 56.6591 150.965 57.9266 150.96 59.19C150.959 59.2696 150.972 59.3455 151 59.4176C151.017 59.4628 151.002 59.4849 150.953 59.4841L150.123 59.4718C150.083 59.471 150.051 59.4542 150.027 59.4213L147.786 56.3535C147.765 56.324 147.754 56.3272 147.754 56.3633L147.769 59.3881C147.77 59.4414 147.743 59.4681 147.69 59.4681H147.083C147.04 59.4681 147.018 59.4468 147.018 59.4041L147.023 55.4072C147.023 55.3563 147.048 55.3317 147.099 55.3333C147.626 55.3481 147.831 55.1795 148.185 55.6545C148.875 56.5832 149.55 57.5262 150.21 58.4836C150.212 58.4854 150.213 58.4866 150.216 58.4873C150.218 58.4879 150.22 58.4879 150.222 58.4873C150.224 58.4866 150.226 58.4853 150.228 58.4836C150.229 58.4818 150.23 58.4797 150.23 58.4775Z" fill="#231F20"/>
<path d="M155.868 58.481L153.862 58.4872C153.854 58.4871 153.846 58.4895 153.839 58.4942C153.833 58.4988 153.827 58.5054 153.824 58.513L153.476 59.4421C153.473 59.4498 153.468 59.4564 153.461 59.461C153.454 59.4656 153.446 59.468 153.438 59.468H152.65C152.644 59.4681 152.637 59.4665 152.631 59.4634C152.625 59.4603 152.62 59.4557 152.616 59.45C152.612 59.4444 152.61 59.4379 152.609 59.4312C152.608 59.4244 152.609 59.4176 152.612 59.4113L154.389 55.3676C154.392 55.3608 154.397 55.3548 154.403 55.3505C154.409 55.3461 154.416 55.3436 154.424 55.343L155.286 55.3024C155.295 55.302 155.303 55.3041 155.31 55.3085C155.317 55.3129 155.322 55.3194 155.326 55.327L157.122 59.4113C157.125 59.4176 157.126 59.4244 157.125 59.4312C157.125 59.4379 157.122 59.4444 157.119 59.45C157.115 59.4557 157.11 59.4603 157.104 59.4634C157.098 59.4665 157.091 59.4681 157.084 59.468H156.297C156.288 59.468 156.28 59.4656 156.273 59.461C156.267 59.4564 156.261 59.4498 156.258 59.4421L155.906 58.5069C155.903 58.4992 155.898 58.4926 155.891 58.488C155.885 58.4834 155.877 58.481 155.868 58.481ZM154.111 57.8067C154.108 57.813 154.107 57.8198 154.108 57.8266C154.109 57.8334 154.111 57.84 154.115 57.8457C154.119 57.8514 154.124 57.8561 154.13 57.8594C154.136 57.8627 154.142 57.8644 154.149 57.8645L155.573 57.8719C155.58 57.8717 155.586 57.87 155.592 57.8668C155.598 57.8635 155.603 57.859 155.607 57.8534C155.61 57.8479 155.613 57.8415 155.614 57.8349C155.614 57.8283 155.613 57.8215 155.611 57.8153L154.908 56.0752C154.905 56.0675 154.9 56.0609 154.893 56.0563C154.886 56.0516 154.878 56.0491 154.87 56.0491C154.861 56.0491 154.853 56.0516 154.846 56.0563C154.839 56.0609 154.834 56.0675 154.831 56.0752L154.111 57.8067Z" fill="#231F20"/>
<path d="M165.175 57.6935V58.8429C165.175 58.8537 165.179 58.864 165.187 58.8716C165.195 58.8792 165.205 58.8835 165.216 58.8835H167.629C167.639 58.8835 167.649 58.8874 167.657 58.8945C167.664 58.9016 167.669 58.9113 167.67 58.9216L167.693 59.4249C167.693 59.4305 167.692 59.436 167.691 59.4412C167.689 59.4465 167.686 59.4512 167.682 59.4553C167.678 59.4593 167.674 59.4625 167.668 59.4647C167.663 59.4669 167.658 59.468 167.652 59.468H164.415C164.404 59.468 164.394 59.4637 164.386 59.4561C164.378 59.4485 164.374 59.4382 164.374 59.4274L164.376 55.3628C164.376 55.352 164.381 55.3417 164.388 55.3341C164.396 55.3265 164.406 55.3222 164.417 55.3222L167.588 55.3185C167.599 55.3185 167.609 55.3226 167.617 55.3299C167.624 55.3373 167.629 55.3473 167.629 55.3579L167.649 55.8846C167.649 55.89 167.648 55.8954 167.646 55.9005C167.644 55.9055 167.641 55.9102 167.637 55.9141C167.633 55.918 167.629 55.9211 167.624 55.9232C167.619 55.9253 167.613 55.9264 167.608 55.9264L165.216 55.9375C165.205 55.9375 165.195 55.9417 165.187 55.9494C165.179 55.957 165.175 55.9673 165.175 55.9781V57.0278C165.175 57.0385 165.179 57.0489 165.187 57.0565C165.195 57.0641 165.205 57.0684 165.216 57.0684H167.513C167.519 57.0684 167.524 57.0695 167.529 57.0717C167.534 57.0739 167.539 57.0771 167.543 57.0811C167.547 57.0852 167.55 57.0899 167.552 57.0951C167.553 57.1004 167.554 57.1059 167.554 57.1114L167.521 57.6148C167.52 57.6251 167.515 57.6348 167.508 57.6419C167.5 57.649 167.49 57.6529 167.48 57.6529H165.216C165.205 57.6529 165.195 57.6572 165.187 57.6648C165.179 57.6724 165.175 57.6827 165.175 57.6935Z" fill="#231F20"/>
<path d="M170.309 56.2021L170.314 59.4053C170.314 59.4471 170.294 59.468 170.253 59.468H169.636C169.595 59.468 169.575 59.4475 169.575 59.4065V55.3714C169.575 55.3626 169.576 55.354 169.58 55.3459C169.583 55.3378 169.588 55.3305 169.594 55.3244C169.601 55.3183 169.608 55.3136 169.616 55.3104C169.624 55.3073 169.633 55.3059 169.641 55.3062L170.719 55.337C170.754 55.3378 170.777 55.3546 170.791 55.3874L171.987 58.4528C172.013 58.5193 172.039 58.5188 172.064 58.4516L173.237 55.3948C173.256 55.3439 173.293 55.3185 173.348 55.3185L174.342 55.3136C174.408 55.3128 174.442 55.346 174.443 55.4133L174.45 59.3647C174.451 59.4336 174.417 59.468 174.347 59.468H173.759C173.705 59.468 173.679 59.441 173.682 59.3868C173.759 58.091 173.596 57.077 173.756 56.1873C173.758 56.1775 173.755 56.1675 173.75 56.1591C173.745 56.1508 173.736 56.1446 173.727 56.1419C173.718 56.1392 173.707 56.14 173.699 56.1443C173.69 56.1486 173.683 56.156 173.68 56.1651L172.415 59.4114C172.4 59.4492 172.372 59.468 172.331 59.468H171.665C171.629 59.468 171.604 59.4508 171.59 59.4164L170.352 56.1947C170.324 56.1192 170.309 56.1217 170.309 56.2021Z" fill="#231F20"/>
<path d="M177.327 58.8749L179.743 58.8872C179.753 58.8871 179.763 58.8909 179.77 58.8978C179.778 58.9046 179.783 58.914 179.783 58.9241L179.831 59.4237C179.832 59.4294 179.831 59.435 179.829 59.4404C179.828 59.4458 179.825 59.4507 179.821 59.4549C179.817 59.459 179.812 59.4624 179.807 59.4646C179.802 59.4669 179.797 59.4681 179.791 59.468H176.537C176.526 59.468 176.516 59.4637 176.508 59.4561C176.501 59.4485 176.497 59.4382 176.497 59.4274V55.3579C176.497 55.3525 176.498 55.3473 176.5 55.3423C176.502 55.3374 176.505 55.3329 176.508 55.3292C176.512 55.3254 176.517 55.3224 176.522 55.3204C176.527 55.3183 176.532 55.3173 176.537 55.3173L179.708 55.3308C179.719 55.3308 179.729 55.3347 179.736 55.3418C179.744 55.3489 179.748 55.3586 179.749 55.3689L179.777 55.887C179.778 55.8926 179.777 55.8981 179.775 55.9033C179.773 55.9085 179.77 55.9133 179.766 55.9173C179.763 55.9214 179.758 55.9246 179.753 55.9268C179.748 55.929 179.742 55.9301 179.737 55.9301H177.337C177.326 55.9301 177.316 55.9344 177.308 55.942C177.301 55.9496 177.296 55.9599 177.296 55.9707V57.0278C177.296 57.0385 177.301 57.0489 177.308 57.0565C177.316 57.0641 177.326 57.0684 177.337 57.0684H179.625C179.636 57.0684 179.646 57.0727 179.653 57.0803C179.661 57.0879 179.665 57.0982 179.665 57.109V57.6098C179.665 57.6206 179.661 57.6309 179.653 57.6386C179.646 57.6462 179.636 57.6505 179.625 57.6505L177.342 57.6578C177.331 57.6578 177.321 57.6619 177.314 57.6693C177.306 57.6766 177.302 57.6867 177.301 57.6972L177.287 58.8343C177.287 58.845 177.291 58.8554 177.299 58.863C177.306 58.8706 177.316 58.8749 177.327 58.8749Z" fill="#231F20"/>
<path d="M184.927 58.4393L184.922 55.4133C184.922 55.3747 184.942 55.3538 184.981 55.3505L185.545 55.3062C185.599 55.3021 185.626 55.3271 185.626 55.3813L185.651 59.4127C185.651 59.4496 185.633 59.4681 185.597 59.4681H184.81C184.765 59.4681 184.729 59.4496 184.702 59.4127L182.456 56.3276C182.455 56.3252 182.452 56.3234 182.449 56.3225C182.447 56.3216 182.444 56.3216 182.441 56.3226C182.438 56.3235 182.436 56.3254 182.434 56.3279C182.432 56.3303 182.431 56.3333 182.432 56.3362L182.439 59.4201C182.439 59.4521 182.423 59.4681 182.39 59.4681H181.757C181.716 59.4681 181.696 59.4476 181.696 59.4065V55.4145C181.696 55.385 181.71 55.3673 181.739 55.3616C182.03 55.3025 182.321 55.3021 182.61 55.3604C182.65 55.3686 182.682 55.3895 182.706 55.4231L184.892 58.4504C184.915 58.484 184.927 58.4803 184.927 58.4393Z" fill="#231F20"/>
<path d="M188.638 55.9609H187.214C187.203 55.9609 187.192 55.9565 187.184 55.9487C187.176 55.9408 187.172 55.9302 187.172 55.9191V55.3518C187.172 55.3407 187.176 55.33 187.184 55.3222C187.192 55.3143 187.203 55.3099 187.214 55.3099L190.953 55.3395C190.964 55.3398 190.975 55.3443 190.982 55.3522C190.99 55.36 190.994 55.3704 190.994 55.3813L190.984 55.9203C190.984 55.9312 190.979 55.9415 190.972 55.9491C190.964 55.9567 190.953 55.9609 190.942 55.9609H189.515C189.504 55.9609 189.493 55.9653 189.485 55.9732C189.477 55.981 189.473 55.9917 189.473 56.0028L189.493 59.4262C189.493 59.4373 189.488 59.448 189.48 59.4558C189.473 59.4637 189.462 59.4681 189.451 59.4681H188.721C188.71 59.4681 188.699 59.4637 188.692 59.4558C188.684 59.448 188.679 59.4373 188.679 59.4262V56.0028C188.679 55.9917 188.675 55.981 188.667 55.9732C188.659 55.9653 188.649 55.9609 188.638 55.9609Z" fill="#231F20"/>
</svg>
