<svg width="206" height="73" viewBox="0 0 206 73" fill="none" xmlns="http://www.w3.org/2000/svg">
<g id="logo">
<path id="Vector" d="M29.1107 0H30.9566C38.2179 0.305185 44.5468 2.77784 49.9433 7.41797C57.1435 13.609 61.074 23.0255 60.3701 32.5071C59.2613 47.46 47.5523 59.3228 32.5884 60.594C32.549 60.5973 32.5281 60.5797 32.5256 60.5411C32.2721 55.8354 32.0321 51.0644 32.1441 46.3537C32.2401 42.2928 32.7619 38.3623 36.1226 35.6008C38.1371 33.9457 40.5749 32.9255 43.0656 32.1183C44.9303 31.5137 46.8373 30.9369 48.7866 30.3881C48.7989 30.385 48.8098 30.3778 48.8174 30.3677C48.8251 30.3576 48.829 30.3451 48.8286 30.3324C48.8282 30.3197 48.8234 30.3076 48.8151 30.298C48.8067 30.2884 48.7954 30.282 48.7829 30.2798C48.2611 30.1699 47.7139 30.0287 47.1413 29.8565C44.4623 29.0492 41.8288 28.1644 39.3701 26.8034C33.75 23.69 31.7454 17.7229 30.1838 11.9108C30.0985 11.5925 30.0144 11.5929 29.9315 11.9121C29.3589 14.1329 28.6029 16.3824 27.6636 18.6606C26.0515 22.5714 23.5436 25.5777 19.6426 27.4039C13.2255 30.4074 6.8117 33.4182 0.401171 36.4364C0.306826 36.4807 0.20961 36.5279 0.109522 36.5779C0.069323 36.5976 0.0451215 36.5857 0.0369176 36.5422L0 36.3564V26.8501C0.0615293 25.5244 0.285906 24.1314 0.67313 22.6711C4.13477 9.62687 15.6223 0.518076 29.1107 0Z" fill="#64B6DB"/>
<path id="Vector_2" d="M142.379 29.7531L140.668 29.71C140.622 29.7084 140.598 29.6846 140.598 29.6386L140.583 24.6179C140.583 24.5727 140.606 24.5502 140.65 24.5502H142.783C142.835 24.5501 142.886 24.5327 142.928 24.5007C142.97 24.4687 143 24.4238 143.014 24.373L143.98 20.7551C143.989 20.7214 144.011 20.7046 144.046 20.7046L149.125 20.7034C149.167 20.7034 149.188 20.7247 149.188 20.7674L149.205 24.4948C149.205 24.5021 149.206 24.5093 149.209 24.516C149.212 24.5227 149.216 24.5288 149.221 24.534C149.226 24.5391 149.232 24.5432 149.239 24.546C149.246 24.5487 149.253 24.5502 149.26 24.5502H154.931C154.972 24.5502 154.992 24.5707 154.992 24.6117V29.6571C154.992 29.6981 154.972 29.7186 154.931 29.7186L149.273 29.7432C149.223 29.7432 149.199 29.7679 149.199 29.8171C149.192 33.079 149.193 36.3375 149.201 39.5929C149.206 41.899 150.244 42.6373 152.478 42.3408C153.217 42.2423 153.976 42.1143 154.754 41.9568C154.843 41.9388 154.888 41.9753 154.888 42.0663L154.905 47.1856C154.905 47.2157 154.895 47.245 154.877 47.2686C154.858 47.2923 154.832 47.309 154.803 47.316C152.128 47.9805 148.886 48.2599 146.239 47.2902C143.341 46.2282 142.711 43.3523 142.663 40.6081C142.602 37.1058 142.59 33.5737 142.627 30.0115C142.628 29.9443 142.602 29.8794 142.556 29.8311C142.509 29.7827 142.446 29.7547 142.379 29.7531Z" fill="white"/>
<path id="Vector_3" d="M102.893 27.2734C104.634 25.6491 107.266 24.7446 109.597 24.5108C109.607 24.5099 109.617 24.5111 109.627 24.5143C109.636 24.5175 109.645 24.5226 109.653 24.5294C109.66 24.5361 109.666 24.5442 109.67 24.5533C109.674 24.5624 109.676 24.5722 109.676 24.5821V30.4508C109.676 30.4885 109.657 30.5078 109.619 30.5086C107.623 30.5308 104.628 31.1978 103.154 32.6265C103.125 32.6536 103.111 32.6868 103.111 32.7262L103.085 47.4083C103.084 47.4493 103.063 47.4698 103.022 47.4698H96.5985C96.555 47.4698 96.5333 47.4485 96.5333 47.4058L96.5259 24.6498C96.5259 24.6408 96.5276 24.6318 96.531 24.6235C96.5344 24.6151 96.5394 24.6075 96.5457 24.6011C96.552 24.5947 96.5595 24.5896 96.5677 24.5862C96.5759 24.5827 96.5847 24.5809 96.5936 24.5809H102.15C102.187 24.581 102.224 24.594 102.253 24.6177C102.282 24.6415 102.302 24.6745 102.31 24.7114L102.828 27.2525C102.829 27.2593 102.832 27.2656 102.837 27.2708C102.842 27.276 102.848 27.2798 102.854 27.282C102.861 27.2841 102.868 27.2844 102.875 27.2829C102.882 27.2814 102.888 27.2781 102.893 27.2734Z" fill="white"/>
<path id="Vector_4" d="M81.9043 30.3339L81.876 52.4056C81.876 52.4582 81.8497 52.4844 81.7972 52.4844H75.4043C75.3633 52.4844 75.3428 52.4639 75.3428 52.4229V24.619C75.3428 24.5739 75.3653 24.5514 75.4105 24.5514C77.4221 24.5481 80.7024 24.5493 85.2515 24.555C90.3362 24.5624 94.0415 27.4555 94.5621 32.6732C95.0728 37.7752 93.8926 42.8219 88.3156 44.3699C86.6125 44.8425 85.1764 44.7957 83.5299 44.7957C83.4864 44.7957 83.4646 44.774 83.4646 44.7305V39.1301C83.4646 39.0825 83.4884 39.0595 83.536 39.0612C85.073 39.1092 86.2495 39.0919 87.1502 37.9857C88.1089 36.8068 88.1852 34.7025 87.923 33.2233C87.3065 29.7407 84.582 30.2699 81.9658 30.2723C81.9248 30.2723 81.9043 30.2929 81.9043 30.3339Z" fill="white"/>
<path id="Vector_5" d="M132.559 41.5335C133.05 40.1244 131.652 39.4661 130.561 39.2433C127.213 38.5567 122.747 38.2835 121.529 34.3554C121.14 33.1035 121.041 31.754 121.231 30.3068C121.95 24.859 127.871 24.1674 132.197 24.6695C134.473 24.9337 136.619 25.7988 138.636 27.2648C138.67 27.2886 138.678 27.319 138.659 27.3559L136.516 31.4611C136.497 31.4997 136.468 31.5087 136.43 31.4882C134.274 30.3474 132.239 29.6152 129.734 29.7248C129.252 29.7461 128.813 29.849 128.418 30.0336C127.41 30.5062 127.524 32.0223 128.452 32.5379C128.761 32.7093 129.158 32.8443 129.643 32.9427C131.991 33.4153 135.142 33.7635 137.044 35.3473C138.729 36.7489 139.28 39.0563 139.172 41.1754C138.971 45.1095 136.06 47.1314 132.431 47.6913C128.269 48.3324 124.005 47.5584 120.452 45.256C120.42 45.2346 120.412 45.2067 120.429 45.1723L122.518 40.8013C122.522 40.7925 122.528 40.7847 122.536 40.7783C122.543 40.7719 122.551 40.767 122.561 40.7639C122.57 40.7608 122.579 40.7596 122.589 40.7603C122.599 40.761 122.608 40.7636 122.617 40.768C124.95 41.9802 127.019 42.8034 129.733 42.7333C130.688 42.7074 132.205 42.5462 132.559 41.5335Z" fill="white"/>
<path id="Vector_6" d="M171.923 26.8219C174.286 24.6634 177.545 24.0469 180.526 24.9501C183.875 25.9654 184.748 29.3987 184.76 32.4813C184.78 37.4529 184.782 42.4253 184.766 47.3985C184.766 47.4469 184.742 47.4711 184.694 47.4711L178.227 47.4699C178.217 47.4699 178.207 47.4657 178.2 47.4583C178.193 47.4509 178.189 47.4409 178.189 47.4305C178.189 42.5754 178.189 37.7199 178.186 32.864C178.185 30.2601 175.727 29.7999 173.899 30.8582C173.303 31.2027 172.709 31.6396 172.293 32.1749C172.265 32.211 172.251 32.2516 172.251 32.2967V47.4083C172.251 47.4493 172.231 47.4699 172.19 47.4699H165.752C165.706 47.4699 165.682 47.4469 165.682 47.4009L165.67 24.7028C165.67 24.6421 165.7 24.6117 165.761 24.6117H171.369C171.41 24.6117 171.435 24.6318 171.444 24.672L171.903 26.8157C171.903 26.8177 171.904 26.8195 171.906 26.821C171.907 26.8224 171.909 26.8235 171.911 26.8241C171.913 26.8247 171.915 26.8248 171.917 26.8245C171.919 26.8241 171.921 26.8232 171.923 26.8219Z" fill="white"/>
<path id="Vector_7" d="M206 32.8949V38.3156L194.862 38.3279C194.822 38.3279 194.802 38.3083 194.802 38.2689V34.1821C194.802 34.1427 194.821 34.1226 194.861 34.1218L199.445 34.1083C199.491 34.1083 199.516 34.0853 199.518 34.0393C199.675 31.3714 198.326 29.5342 195.448 30.1544C193.701 30.5322 193.142 32.1676 193.153 33.7502C193.165 35.7503 193.213 37.565 193.297 39.1943C193.572 44.5892 200.34 41.9274 202.958 40.6353C202.974 40.6278 202.991 40.6265 203.008 40.6318C203.024 40.6371 203.038 40.6485 203.045 40.6636L205.307 45.0272C205.328 45.0683 205.32 45.1019 205.283 45.1282C201.967 47.4179 198.289 48.2912 194.247 47.7481C193.599 47.6611 192.874 47.4618 192.07 47.15C188.356 45.7065 186.752 42.5513 186.698 38.7242C186.663 36.2396 186.472 33.4573 187.038 31.0798C187.948 27.2564 190.977 25.0512 194.768 24.6438C198.618 24.2304 202.693 25.1877 204.817 28.6826C205.589 29.9501 205.983 31.3542 206 32.8949Z" fill="white"/>
<path id="Vector_8" d="M118.219 24.6118H111.655C111.615 24.6118 111.583 24.6438 111.583 24.6832V47.4909C111.583 47.5303 111.615 47.5622 111.655 47.5622H118.219C118.258 47.5622 118.29 47.5303 118.29 47.4909V24.6832C118.29 24.6438 118.258 24.6118 118.219 24.6118Z" fill="white"/>
<path id="Vector_9" d="M163.548 24.6118H156.959C156.926 24.6118 156.9 24.6383 156.9 24.6709V47.5032C156.9 47.5358 156.926 47.5622 156.959 47.5622H163.548C163.58 47.5622 163.607 47.5358 163.607 47.5032V24.6709C163.607 24.6383 163.58 24.6118 163.548 24.6118Z" fill="white"/>
<path id="Vector_10" d="M27.0964 72.3584H0.0751953L0.0887318 44.4672C0.0887318 44.4253 0.10555 44.3917 0.139186 44.3663C0.262244 44.2764 0.46283 44.2297 0.561277 44.1792C9.36899 39.7097 18.1697 35.2439 26.9635 30.7818C26.9779 30.7745 26.9939 30.771 27.0101 30.7715C27.0262 30.7721 27.0419 30.7769 27.0557 30.7852C27.0695 30.7936 27.081 30.8054 27.089 30.8195C27.0969 30.8335 27.1012 30.8494 27.1013 30.8655L27.0964 72.3584Z" fill="#64B6DB"/>
<path id="Vector_11" d="M105.642 57.6467C105.774 59.0976 107.696 59.5049 108.273 58.0885C108.293 58.0401 108.328 58.0204 108.38 58.0294L109.063 58.155C109.071 58.1565 109.078 58.1596 109.085 58.1642C109.091 58.1689 109.097 58.1748 109.101 58.1817C109.105 58.1886 109.107 58.1962 109.108 58.2042C109.109 58.2121 109.108 58.2201 109.105 58.2276C108.404 60.2679 105.048 59.9812 104.77 57.8178C104.523 55.9141 106.099 54.8348 107.858 55.3529C108.513 55.5457 108.924 55.9694 109.093 56.6241C109.108 56.684 109.086 56.7189 109.025 56.7287L108.349 56.8419C108.306 56.8493 108.278 56.8321 108.267 56.7902C108.07 56.0728 107.468 55.7615 106.751 55.9005C105.921 56.063 105.551 56.645 105.642 57.6467Z" fill="white"/>
<path id="Vector_12" d="M161.802 58.9377C161.357 59.4373 160.769 59.651 160.039 59.5788C157.589 59.3389 157.458 55.7886 159.847 55.2841C160.809 55.081 162.135 55.3702 162.432 56.4125C162.449 56.4708 162.427 56.5061 162.367 56.5184L161.747 56.6488C161.699 56.6587 161.664 56.641 161.644 56.5959C161.105 55.3998 159.371 55.6668 159.062 56.8925C158.513 59.0768 161.343 59.7462 161.772 58.0061C161.776 57.9865 161.777 57.966 161.773 57.9462C161.768 57.9264 161.76 57.9078 161.747 57.8918C161.735 57.8758 161.719 57.8628 161.701 57.8539C161.683 57.8449 161.663 57.8402 161.642 57.84L160.492 57.8314C160.43 57.8314 160.398 57.8006 160.395 57.7391L160.37 57.3564C160.365 57.2875 160.397 57.253 160.466 57.253H162.437C162.478 57.253 162.499 57.2735 162.499 57.3146V59.4065C162.499 59.4476 162.478 59.4681 162.437 59.4681H161.965C161.912 59.4681 161.886 59.4414 161.885 59.3881L161.882 58.9685C161.882 58.8889 161.856 58.8786 161.802 58.9377Z" fill="white"/>
<path id="Vector_13" d="M95.8577 57.7207L95.8713 59.4263C95.8713 59.4318 95.8702 59.4372 95.8681 59.4423C95.866 59.4474 95.8629 59.452 95.859 59.4559C95.8551 59.4598 95.8505 59.4629 95.8454 59.465C95.8403 59.4671 95.8349 59.4682 95.8294 59.4682H95.1034C95.0923 59.4682 95.0816 59.4637 95.0738 59.4559C95.0659 59.4481 95.0615 59.4374 95.0615 59.4263L95.064 55.3678C95.064 55.3567 95.0684 55.3461 95.0762 55.3383C95.0841 55.3304 95.0947 55.326 95.1058 55.326L98.2844 55.3162C98.2899 55.3162 98.2954 55.3172 98.3004 55.3193C98.3055 55.3214 98.3101 55.3245 98.314 55.3284C98.3179 55.3323 98.321 55.3369 98.3231 55.342C98.3252 55.3471 98.3263 55.3525 98.3263 55.358L98.3226 55.8822C98.3226 55.8933 98.3182 55.904 98.3103 55.9118C98.3025 55.9197 98.2918 55.9241 98.2807 55.9241L95.9119 55.9413C95.901 55.9413 95.8905 55.9455 95.8827 55.9531C95.8749 55.9607 95.8703 55.971 95.87 55.9819L95.8466 57.0636C95.8465 57.0692 95.8474 57.0748 95.8495 57.08C95.8515 57.0852 95.8546 57.09 95.8585 57.094C95.8624 57.098 95.867 57.1012 95.8722 57.1034C95.8773 57.1055 95.8829 57.1067 95.8885 57.1067L98.1897 57.082C98.2008 57.082 98.2114 57.0865 98.2193 57.0943C98.2271 57.1022 98.2315 57.1128 98.2315 57.1239V57.6555C98.2315 57.661 98.2304 57.6664 98.2283 57.6715C98.2262 57.6766 98.2231 57.6812 98.2193 57.6851C98.2154 57.689 98.2108 57.6921 98.2057 57.6942C98.2006 57.6963 98.1952 57.6973 98.1897 57.6973L95.9008 57.6777C95.8951 57.6775 95.8894 57.6785 95.8841 57.6806C95.8788 57.6827 95.874 57.6859 95.87 57.6899C95.8659 57.6939 95.8627 57.6987 95.8606 57.704C95.8585 57.7093 95.8575 57.715 95.8577 57.7207Z" fill="white"/>
<path id="Vector_14" d="M100.423 58.5119L100.077 59.4397C100.074 59.4481 100.069 59.4552 100.061 59.4603C100.054 59.4654 100.046 59.4681 100.037 59.468H99.2393C99.2321 59.468 99.2251 59.4662 99.2188 59.4628C99.2125 59.4594 99.2072 59.4545 99.2033 59.4485C99.1994 59.4425 99.197 59.4357 99.1964 59.4286C99.1958 59.4215 99.197 59.4143 99.1999 59.4078L100.974 55.3604C100.978 55.3527 100.983 55.3462 100.99 55.3416C100.997 55.337 101.005 55.3345 101.014 55.3345L101.907 55.3296C101.916 55.3296 101.924 55.3321 101.931 55.3367C101.938 55.3412 101.943 55.3478 101.947 55.3554L103.72 59.4078C103.723 59.4144 103.724 59.4217 103.723 59.4289C103.723 59.4361 103.72 59.443 103.716 59.4491C103.712 59.4551 103.707 59.46 103.7 59.4633C103.694 59.4666 103.686 59.4682 103.679 59.468H102.893C102.884 59.468 102.875 59.4651 102.868 59.4598C102.861 59.4545 102.855 59.4471 102.852 59.4385L102.534 58.5131C102.531 58.5046 102.525 58.4971 102.518 58.4918C102.511 58.4865 102.502 58.4836 102.493 58.4836H100.464C100.455 58.4836 100.446 58.4863 100.439 58.4913C100.432 58.4964 100.426 58.5036 100.423 58.5119ZM101.817 56.9601C101.698 56.6943 101.635 56.3805 101.511 56.0987C101.481 56.0306 101.452 56.031 101.424 56.0999L100.725 57.7821C100.703 57.8338 100.72 57.8605 100.776 57.8621C101.118 57.8753 101.46 57.8773 101.803 57.8683C102.359 57.8548 101.917 57.1779 101.817 56.9601Z" fill="white"/>
<path id="Vector_15" d="M111.646 55.3278L110.878 55.3265C110.861 55.3264 110.846 55.3407 110.846 55.3584L110.839 59.439C110.839 59.4567 110.853 59.471 110.871 59.4711L111.639 59.4724C111.657 59.4724 111.671 59.4581 111.671 59.4405L111.678 55.3599C111.678 55.3422 111.664 55.3278 111.646 55.3278Z" fill="white"/>
<path id="Vector_16" d="M114.543 58.8108L116.79 58.8477C116.8 58.8477 116.809 58.8516 116.816 58.8585C116.823 58.8655 116.827 58.8748 116.827 58.8846L116.817 59.431C116.817 59.4359 116.816 59.4407 116.814 59.4451C116.813 59.4496 116.81 59.4537 116.806 59.4571C116.803 59.4606 116.799 59.4633 116.794 59.4651C116.79 59.467 116.785 59.4679 116.78 59.4679H113.711C113.706 59.4679 113.702 59.467 113.697 59.4651C113.693 59.4633 113.689 59.4606 113.685 59.4571C113.682 59.4537 113.679 59.4496 113.677 59.4451C113.675 59.4407 113.674 59.4359 113.674 59.431L113.711 55.3529C113.711 55.348 113.712 55.3432 113.714 55.3387C113.716 55.3342 113.719 55.3302 113.722 55.3268C113.725 55.3233 113.73 55.3206 113.734 55.3187C113.739 55.3169 113.743 55.3159 113.748 55.3159L114.469 55.3135C114.479 55.3135 114.488 55.3174 114.495 55.3243C114.502 55.3312 114.506 55.3406 114.506 55.3504V58.7739C114.506 58.7837 114.51 58.7931 114.517 58.8C114.524 58.8069 114.533 58.8108 114.543 58.8108Z" fill="white"/>
<path id="Vector_17" d="M119.247 55.3271H118.531C118.499 55.3271 118.473 55.353 118.473 55.385V59.409C118.473 59.4409 118.499 59.4668 118.531 59.4668H119.247C119.279 59.4668 119.305 59.4409 119.305 59.409V55.385C119.305 55.353 119.279 55.3271 119.247 55.3271Z" fill="white"/>
<path id="Vector_18" d="M122.313 55.961H120.883C120.873 55.961 120.863 55.9568 120.855 55.9494C120.848 55.9421 120.844 55.932 120.844 55.9216V55.3654C120.844 55.3549 120.848 55.3449 120.855 55.3375C120.863 55.3301 120.873 55.326 120.883 55.326L124.615 55.3174C124.626 55.3174 124.636 55.3214 124.643 55.3285C124.65 55.3356 124.655 55.3453 124.655 55.3555L124.665 55.9204C124.665 55.9256 124.664 55.9309 124.662 55.9358C124.66 55.9407 124.657 55.9452 124.654 55.949C124.65 55.9528 124.646 55.9558 124.641 55.9579C124.636 55.9599 124.631 55.961 124.625 55.961H123.188C123.178 55.961 123.168 55.9651 123.16 55.9725C123.153 55.9799 123.149 55.9899 123.149 56.0004L123.156 59.4288C123.156 59.4392 123.152 59.4492 123.144 59.4566C123.137 59.464 123.127 59.4681 123.117 59.4681H122.388C122.378 59.4681 122.368 59.464 122.36 59.4566C122.353 59.4492 122.349 59.4392 122.349 59.4288L122.352 56.0004C122.352 55.9899 122.348 55.9799 122.341 55.9725C122.334 55.9651 122.324 55.961 122.313 55.961Z" fill="white"/>
<path id="Vector_19" d="M128.036 57.2112C128.393 56.6361 128.748 56.0586 129.1 55.4785C129.248 55.2337 129.768 55.3087 130.021 55.3666C130.062 55.3756 130.071 55.3977 130.048 55.433C129.552 56.1878 129.055 56.9397 128.558 57.6887C128.276 58.1145 128.375 58.9094 128.419 59.3943C128.423 59.4435 128.401 59.4681 128.353 59.4681H127.615C127.577 59.4681 127.559 59.4492 127.563 59.4115C127.597 58.9131 127.683 58.1145 127.401 57.6801C126.906 56.9187 126.408 56.1558 125.907 55.3912C125.903 55.3842 125.9 55.3762 125.9 55.3679C125.9 55.3596 125.902 55.3513 125.906 55.3439C125.91 55.3365 125.916 55.3303 125.923 55.3258C125.93 55.3214 125.938 55.3189 125.947 55.3186L126.709 55.3136C126.752 55.3128 126.785 55.3309 126.808 55.3678L127.954 57.2112C127.982 57.2555 128.009 57.2555 128.036 57.2112Z" fill="white"/>
<path id="Vector_20" d="M135.103 56.1036L135.129 59.4249C135.13 59.4659 135.11 59.4856 135.069 59.484L134.406 59.4643C134.322 59.461 134.31 59.4298 134.369 59.3708C134.378 59.3626 134.386 59.3544 134.395 59.3462C134.404 59.3371 134.408 59.3261 134.408 59.3129L134.411 55.4021C134.411 55.3578 134.433 55.3353 134.477 55.3344L135.506 55.3098C135.558 55.309 135.594 55.3328 135.612 55.3812L136.8 58.4897C136.822 58.5479 136.845 58.5479 136.868 58.4897L138.058 55.3898C138.075 55.3447 138.108 55.3221 138.156 55.3221L139.22 55.3308C139.256 55.3308 139.274 55.3492 139.274 55.3861L139.273 59.4065C139.273 59.4475 139.252 59.468 139.21 59.468H138.524C138.477 59.468 138.454 59.4446 138.455 59.3978L138.542 56.1762C138.544 56.0679 138.526 56.0642 138.487 56.1651L137.231 59.4077C137.215 59.4479 137.186 59.468 137.144 59.468H136.493C136.448 59.468 136.417 59.4467 136.4 59.404L135.13 56.0974C135.112 56.049 135.103 56.0511 135.103 56.1036Z" fill="white"/>
<path id="Vector_21" d="M144.126 58.4837H142.247C142.223 58.4837 142.2 58.4908 142.18 58.5041C142.16 58.5175 142.144 58.5365 142.135 58.5588L141.793 59.3968C141.773 59.4444 141.738 59.4682 141.687 59.4682H140.988C140.931 59.4682 140.914 59.4419 140.937 59.3894L142.679 55.4196C142.696 55.3794 142.726 55.3547 142.769 55.3457C143.047 55.2875 143.324 55.292 143.598 55.3593C143.647 55.3716 143.681 55.4007 143.7 55.4466L145.427 59.4079C145.444 59.4481 145.431 59.4682 145.388 59.4682H144.664C144.62 59.4682 144.589 59.4477 144.573 59.4067L144.215 58.5428C144.198 58.5034 144.169 58.4837 144.126 58.4837ZM142.428 57.8081C142.426 57.814 142.425 57.8204 142.425 57.8268C142.426 57.8331 142.428 57.8392 142.432 57.8446C142.435 57.8499 142.44 57.8543 142.446 57.8574C142.451 57.8605 142.457 57.8621 142.464 57.8623L143.875 57.8746C143.882 57.8746 143.888 57.873 143.893 57.8701C143.899 57.8672 143.904 57.8629 143.907 57.8577C143.911 57.8525 143.913 57.8465 143.914 57.8403C143.915 57.834 143.914 57.8276 143.912 57.8217L143.222 56.0607C143.219 56.0535 143.214 56.0474 143.207 56.0431C143.201 56.0389 143.193 56.0366 143.186 56.0366C143.178 56.0366 143.17 56.0389 143.164 56.0431C143.157 56.0474 143.152 56.0535 143.149 56.0607L142.428 57.8081Z" fill="white"/>
<path id="Vector_22" d="M150.23 58.4775L150.219 55.4096C150.219 55.367 150.24 55.3448 150.283 55.3432L150.881 55.3136C150.933 55.3112 150.96 55.3358 150.96 55.3875C150.965 56.6591 150.965 57.9266 150.96 59.19C150.959 59.2696 150.972 59.3455 151 59.4176C151.017 59.4628 151.002 59.4849 150.953 59.4841L150.123 59.4718C150.083 59.471 150.051 59.4542 150.027 59.4213L147.786 56.3535C147.765 56.324 147.754 56.3272 147.754 56.3633L147.769 59.3881C147.77 59.4414 147.743 59.4681 147.69 59.4681H147.083C147.04 59.4681 147.018 59.4468 147.018 59.4041L147.023 55.4072C147.023 55.3563 147.048 55.3317 147.099 55.3333C147.626 55.3481 147.831 55.1795 148.185 55.6545C148.875 56.5832 149.55 57.5262 150.21 58.4836C150.212 58.4854 150.213 58.4866 150.216 58.4873C150.218 58.4879 150.22 58.4879 150.222 58.4873C150.224 58.4866 150.226 58.4853 150.228 58.4836C150.229 58.4818 150.23 58.4797 150.23 58.4775Z" fill="white"/>
<path id="Vector_23" d="M155.868 58.4811L153.862 58.4873C153.854 58.4872 153.846 58.4897 153.839 58.4943C153.833 58.4989 153.827 58.5055 153.824 58.5131L153.476 59.4422C153.473 59.4499 153.468 59.4565 153.461 59.4611C153.454 59.4657 153.446 59.4681 153.438 59.4681H152.65C152.644 59.4682 152.637 59.4666 152.631 59.4635C152.625 59.4604 152.62 59.4558 152.616 59.4502C152.612 59.4445 152.61 59.438 152.609 59.4313C152.608 59.4245 152.609 59.4177 152.612 59.4115L154.389 55.3678C154.392 55.3609 154.397 55.355 154.403 55.3506C154.409 55.3463 154.416 55.3437 154.424 55.3432L155.286 55.3025C155.295 55.3021 155.303 55.3043 155.31 55.3087C155.317 55.3131 155.322 55.3195 155.326 55.3272L157.122 59.4115C157.125 59.4177 157.126 59.4245 157.125 59.4313C157.125 59.438 157.122 59.4445 157.119 59.4502C157.115 59.4558 157.11 59.4604 157.104 59.4635C157.098 59.4666 157.091 59.4682 157.084 59.4681H156.297C156.288 59.4681 156.28 59.4657 156.273 59.4611C156.267 59.4565 156.261 59.4499 156.258 59.4422L155.906 58.507C155.903 58.4993 155.898 58.4927 155.891 58.4881C155.885 58.4835 155.877 58.4811 155.868 58.4811ZM154.111 57.8068C154.108 57.8131 154.107 57.82 154.108 57.8268C154.109 57.8336 154.111 57.8401 154.115 57.8458C154.119 57.8515 154.124 57.8562 154.13 57.8595C154.136 57.8628 154.142 57.8645 154.149 57.8646L155.573 57.872C155.58 57.8718 155.586 57.8701 155.592 57.8669C155.598 57.8637 155.603 57.8591 155.607 57.8536C155.61 57.848 155.613 57.8417 155.614 57.835C155.614 57.8284 155.613 57.8217 155.611 57.8154L154.908 56.0753C154.905 56.0676 154.9 56.061 154.893 56.0564C154.886 56.0517 154.878 56.0493 154.87 56.0493C154.861 56.0493 154.853 56.0517 154.846 56.0564C154.839 56.061 154.834 56.0676 154.831 56.0753L154.111 57.8068Z" fill="white"/>
<path id="Vector_24" d="M165.175 57.6936V58.843C165.175 58.8538 165.179 58.8641 165.187 58.8717C165.195 58.8793 165.205 58.8836 165.216 58.8836H167.629C167.639 58.8836 167.649 58.8875 167.657 58.8946C167.664 58.9017 167.669 58.9114 167.67 58.9218L167.693 59.4251C167.693 59.4306 167.692 59.4362 167.691 59.4414C167.689 59.4466 167.686 59.4514 167.682 59.4554C167.678 59.4594 167.674 59.4626 167.668 59.4648C167.663 59.467 167.658 59.4681 167.652 59.4681H164.415C164.404 59.4681 164.394 59.4639 164.386 59.4562C164.378 59.4486 164.374 59.4383 164.374 59.4275L164.376 55.3629C164.376 55.3521 164.381 55.3418 164.388 55.3342C164.396 55.3266 164.406 55.3223 164.417 55.3223L167.588 55.3186C167.599 55.3186 167.609 55.3227 167.617 55.3301C167.624 55.3374 167.629 55.3474 167.629 55.358L167.649 55.8847C167.649 55.8901 167.648 55.8955 167.646 55.9006C167.644 55.9057 167.641 55.9103 167.637 55.9142C167.633 55.9181 167.629 55.9212 167.624 55.9233C167.619 55.9254 167.613 55.9265 167.608 55.9265L165.216 55.9376C165.205 55.9376 165.195 55.9419 165.187 55.9495C165.179 55.9571 165.175 55.9674 165.175 55.9782V57.0279C165.175 57.0387 165.179 57.049 165.187 57.0566C165.195 57.0642 165.205 57.0685 165.216 57.0685H167.513C167.519 57.0685 167.524 57.0696 167.529 57.0718C167.534 57.074 167.539 57.0772 167.543 57.0812C167.547 57.0853 167.55 57.0901 167.552 57.0953C167.553 57.1005 167.554 57.106 167.554 57.1116L167.521 57.6149C167.52 57.6252 167.515 57.6349 167.508 57.642C167.5 57.6491 167.49 57.653 167.48 57.653H165.216C165.205 57.653 165.195 57.6573 165.187 57.6649C165.179 57.6725 165.175 57.6829 165.175 57.6936Z" fill="white"/>
<path id="Vector_25" d="M170.309 56.2021L170.314 59.4053C170.314 59.4471 170.294 59.468 170.253 59.468H169.636C169.595 59.468 169.575 59.4475 169.575 59.4065V55.3714C169.575 55.3626 169.576 55.354 169.58 55.3459C169.583 55.3378 169.588 55.3305 169.594 55.3244C169.601 55.3183 169.608 55.3136 169.616 55.3104C169.624 55.3073 169.633 55.3059 169.641 55.3062L170.719 55.337C170.754 55.3378 170.777 55.3546 170.791 55.3874L171.987 58.4528C172.013 58.5193 172.039 58.5188 172.064 58.4516L173.237 55.3948C173.256 55.3439 173.293 55.3185 173.348 55.3185L174.342 55.3136C174.408 55.3128 174.442 55.346 174.443 55.4133L174.45 59.3647C174.451 59.4336 174.417 59.468 174.347 59.468H173.759C173.705 59.468 173.679 59.441 173.682 59.3868C173.759 58.091 173.596 57.077 173.756 56.1873C173.758 56.1775 173.755 56.1675 173.75 56.1591C173.745 56.1508 173.736 56.1446 173.727 56.1419C173.718 56.1392 173.707 56.14 173.699 56.1443C173.69 56.1486 173.683 56.156 173.68 56.1651L172.415 59.4114C172.4 59.4492 172.372 59.468 172.331 59.468H171.665C171.629 59.468 171.604 59.4508 171.59 59.4164L170.352 56.1947C170.324 56.1192 170.309 56.1217 170.309 56.2021Z" fill="white"/>
<path id="Vector_26" d="M177.327 58.875L179.743 58.8873C179.753 58.8873 179.763 58.891 179.77 58.8979C179.778 58.9047 179.783 58.9141 179.783 58.9242L179.831 59.4238C179.832 59.4295 179.831 59.4352 179.829 59.4405C179.828 59.4459 179.825 59.4508 179.821 59.455C179.817 59.4592 179.812 59.4625 179.807 59.4647C179.802 59.467 179.797 59.4682 179.791 59.4681H176.537C176.526 59.4681 176.516 59.4639 176.508 59.4563C176.501 59.4486 176.497 59.4383 176.497 59.4275V55.358C176.497 55.3527 176.498 55.3474 176.5 55.3425C176.502 55.3375 176.505 55.3331 176.508 55.3293C176.512 55.3255 176.517 55.3225 176.522 55.3205C176.527 55.3184 176.532 55.3174 176.537 55.3174L179.708 55.3309C179.719 55.3309 179.729 55.3348 179.736 55.3419C179.744 55.349 179.748 55.3587 179.749 55.3691L179.777 55.8871C179.778 55.8927 179.777 55.8982 179.775 55.9034C179.773 55.9087 179.77 55.9134 179.766 55.9175C179.763 55.9215 179.758 55.9247 179.753 55.9269C179.748 55.9291 179.742 55.9302 179.737 55.9302H177.337C177.326 55.9302 177.316 55.9345 177.308 55.9421C177.301 55.9497 177.296 55.9601 177.296 55.9708V57.0279C177.296 57.0387 177.301 57.049 177.308 57.0566C177.316 57.0642 177.326 57.0685 177.337 57.0685H179.625C179.636 57.0685 179.646 57.0728 179.653 57.0804C179.661 57.088 179.665 57.0983 179.665 57.1091V57.61C179.665 57.6207 179.661 57.6311 179.653 57.6387C179.646 57.6463 179.636 57.6506 179.625 57.6506L177.342 57.658C177.331 57.658 177.321 57.6621 177.314 57.6694C177.306 57.6768 177.302 57.6868 177.301 57.6973L177.287 58.8344C177.287 58.8452 177.291 58.8555 177.299 58.8631C177.306 58.8707 177.316 58.875 177.327 58.875Z" fill="white"/>
<path id="Vector_27" d="M184.927 58.4392L184.922 55.4132C184.922 55.3746 184.942 55.3537 184.981 55.3504L185.545 55.3061C185.599 55.302 185.626 55.327 185.626 55.3812L185.651 59.4126C185.651 59.4495 185.633 59.4679 185.597 59.4679H184.81C184.765 59.4679 184.729 59.4495 184.702 59.4126L182.456 56.3275C182.455 56.3251 182.452 56.3233 182.449 56.3223C182.447 56.3214 182.444 56.3215 182.441 56.3224C182.438 56.3234 182.436 56.3253 182.434 56.3278C182.432 56.3302 182.431 56.3331 182.432 56.3361L182.439 59.4199C182.439 59.4519 182.423 59.4679 182.39 59.4679H181.757C181.716 59.4679 181.696 59.4474 181.696 59.4064V55.4144C181.696 55.3849 181.71 55.3672 181.739 55.3615C182.03 55.3024 182.321 55.302 182.61 55.3602C182.65 55.3684 182.682 55.3894 182.706 55.423L184.892 58.4502C184.915 58.4839 184.927 58.4802 184.927 58.4392Z" fill="white"/>
<path id="Vector_28" d="M188.638 55.961H187.214C187.203 55.961 187.192 55.9566 187.184 55.9488C187.176 55.9409 187.172 55.9303 187.172 55.9192V55.3519C187.172 55.3408 187.176 55.3302 187.184 55.3223C187.192 55.3145 187.203 55.3101 187.214 55.3101L190.953 55.3396C190.964 55.3399 190.975 55.3445 190.982 55.3523C190.99 55.3601 190.994 55.3705 190.994 55.3814L190.984 55.9204C190.984 55.9313 190.979 55.9416 190.972 55.9492C190.964 55.9568 190.953 55.961 190.942 55.961H189.515C189.504 55.961 189.493 55.9654 189.485 55.9733C189.477 55.9811 189.473 55.9918 189.473 56.0029L189.493 59.4264C189.493 59.4375 189.488 59.4481 189.48 59.456C189.473 59.4638 189.462 59.4682 189.451 59.4682H188.721C188.71 59.4682 188.699 59.4638 188.692 59.456C188.684 59.4481 188.679 59.4375 188.679 59.4264V56.0029C188.679 55.9918 188.675 55.9811 188.667 55.9733C188.659 55.9654 188.649 55.961 188.638 55.961Z" fill="white"/>
</g>
</svg>
