<svg width="200" height="48" viewBox="0 0 200 48" fill="none" xmlns="http://www.w3.org/2000/svg">
<path d="M19.311 0H20.5355C25.3524 0.202449 29.5508 1.84272 33.1306 4.92082C37.9069 9.02776 40.5143 15.2743 40.0474 21.5641C39.3118 31.4833 31.5445 39.3527 21.618 40.1959C21.5918 40.1981 21.578 40.1864 21.5763 40.1608C21.4082 37.0392 21.249 33.8743 21.3233 30.7494C21.3869 28.0555 21.7331 25.4482 23.9625 23.6163C25.2988 22.5184 26.9159 21.8416 28.5682 21.3061C29.8052 20.905 31.0702 20.5225 32.3633 20.1584C32.3714 20.1563 32.3787 20.1516 32.3838 20.1449C32.3888 20.1381 32.3914 20.1299 32.3912 20.1215C32.3909 20.113 32.3877 20.105 32.3822 20.0986C32.3767 20.0923 32.3691 20.088 32.3608 20.0865C32.0147 20.0136 31.6517 19.92 31.2718 19.8057C29.4947 19.2702 27.7478 18.6833 26.1167 17.7804C22.3886 15.7151 21.0588 11.7567 20.0229 7.90123C19.9663 7.69007 19.9105 7.69034 19.8555 7.90204C19.4757 9.37524 18.9742 10.8675 18.351 12.3788C17.2816 14.9731 15.618 16.9674 13.0302 18.1788C8.77334 20.1712 4.51864 22.1684 0.266123 24.1706C0.203537 24.2 0.139048 24.2313 0.0726531 24.2645C0.0459864 24.2776 0.029932 24.2697 0.0244898 24.2408L0 24.1176V17.8114C0.0408163 16.932 0.18966 16.0079 0.446531 15.0392C2.74286 6.38612 10.3633 0.343674 19.311 0Z" fill="#0397D7"/>
<path d="M116.469 15.7372L115.335 15.7086C115.304 15.7075 115.288 15.6917 115.288 15.6612L115.278 12.3306C115.278 12.3007 115.293 12.2857 115.322 12.2857H116.737C116.772 12.2857 116.806 12.2742 116.834 12.2529C116.861 12.2317 116.881 12.2019 116.891 12.1682L117.531 9.76817C117.537 9.74586 117.552 9.7347 117.575 9.7347L120.944 9.73389C120.972 9.73389 120.986 9.74804 120.986 9.77633L120.998 12.249C120.998 12.2538 120.998 12.2586 121 12.263C121.002 12.2675 121.005 12.2716 121.008 12.275C121.012 12.2784 121.016 12.2811 121.02 12.2829C121.025 12.2848 121.029 12.2857 121.034 12.2857H124.796C124.823 12.2857 124.837 12.2993 124.837 12.3265V15.6735C124.837 15.7007 124.823 15.7143 124.796 15.7143L121.042 15.7306C121.01 15.7306 120.993 15.7469 120.993 15.7796C120.989 17.9434 120.99 20.105 120.995 22.2645C120.998 23.7943 121.686 24.2841 123.169 24.0874C123.659 24.0221 124.162 23.9372 124.678 23.8327C124.738 23.8207 124.767 23.8449 124.767 23.9053L124.779 27.3012C124.779 27.3212 124.772 27.3406 124.76 27.3563C124.748 27.3721 124.73 27.3831 124.711 27.3878C122.936 27.8286 120.786 28.0139 119.03 27.3706C117.108 26.6661 116.69 24.7584 116.658 22.938C116.617 20.6147 116.609 18.2716 116.634 15.9086C116.635 15.864 116.618 15.821 116.587 15.7889C116.556 15.7568 116.514 15.7382 116.469 15.7372Z" fill="white"/>
<path d="M90.2759 14.0921C91.431 13.0146 93.1771 12.4146 94.7233 12.2595C94.7299 12.2589 94.7366 12.2597 94.743 12.2618C94.7493 12.2639 94.7551 12.2673 94.76 12.2718C94.7649 12.2762 94.7689 12.2817 94.7715 12.2877C94.7742 12.2937 94.7755 12.3002 94.7755 12.3068V16.1999C94.7755 16.2249 94.763 16.2377 94.738 16.2382C93.4139 16.2529 91.4269 16.6954 90.449 17.6431C90.4299 17.6611 90.4204 17.6831 90.4204 17.7093L90.4033 27.4488C90.4027 27.4761 90.3888 27.4897 90.3616 27.4897H86.1004C86.0716 27.4897 86.0571 27.4755 86.0571 27.4472L86.0522 12.3517C86.0522 12.3457 86.0534 12.3398 86.0557 12.3342C86.0579 12.3287 86.0612 12.3236 86.0654 12.3194C86.0696 12.3151 86.0745 12.3118 86.08 12.3095C86.0854 12.3072 86.0912 12.306 86.0971 12.306H89.7829C89.8078 12.306 89.832 12.3147 89.8513 12.3304C89.8706 12.3462 89.8839 12.3681 89.889 12.3925L90.2327 14.0782C90.2336 14.0828 90.2357 14.0869 90.2388 14.0904C90.2419 14.0938 90.2458 14.0964 90.2502 14.0978C90.2546 14.0992 90.2593 14.0994 90.2638 14.0984C90.2684 14.0974 90.2725 14.0952 90.2759 14.0921Z" fill="white"/>
<path d="M76.3527 16.1225L76.3339 30.7641C76.3339 30.799 76.3165 30.8164 76.2816 30.8164H72.0408C72.0136 30.8164 72 30.8028 72 30.7756V12.3315C72 12.3016 72.015 12.2866 72.0449 12.2866C73.3793 12.2844 75.5554 12.2852 78.5731 12.289C81.9461 12.2939 84.4041 14.2131 84.7494 17.6743C85.0882 21.0588 84.3053 24.4066 80.6057 25.4335C79.4759 25.747 78.5233 25.716 77.431 25.716C77.4022 25.716 77.3878 25.7016 77.3878 25.6727V21.9576C77.3878 21.926 77.4035 21.9108 77.4351 21.9119C78.4547 21.9437 79.2351 21.9323 79.8327 21.1984C80.4686 20.4164 80.5192 19.0205 80.3453 18.0392C79.9363 15.729 78.129 16.0801 76.3935 16.0817C76.3663 16.0817 76.3527 16.0953 76.3527 16.1225Z" fill="white"/>
<path d="M109.955 23.5517C110.281 22.617 109.354 22.1803 108.63 22.0325C106.409 21.577 103.447 21.3958 102.639 18.7901C102.381 17.9596 102.315 17.0643 102.441 16.1043C102.918 12.4905 106.846 12.0317 109.715 12.3648C111.225 12.54 112.649 13.1139 113.987 14.0864C114.01 14.1022 114.014 14.1223 114.002 14.1468L112.581 16.8701C112.568 16.8956 112.549 16.9016 112.524 16.888C111.093 16.1313 109.743 15.6456 108.082 15.7182C107.762 15.7324 107.471 15.8007 107.208 15.9231C106.54 16.2366 106.616 17.2423 107.231 17.5844C107.436 17.6981 107.699 17.7876 108.022 17.8529C109.579 18.1664 111.669 18.3974 112.931 19.448C114.048 20.3778 114.414 21.9084 114.342 23.3141C114.209 25.9239 112.278 27.2652 109.87 27.6366C107.11 28.0619 104.281 27.5484 101.924 26.0211C101.903 26.0069 101.898 25.9884 101.909 25.9656L103.295 23.066C103.298 23.0602 103.302 23.055 103.306 23.0508C103.311 23.0465 103.317 23.0433 103.323 23.0412C103.329 23.0392 103.336 23.0383 103.342 23.0388C103.348 23.0393 103.355 23.041 103.36 23.0439C104.908 23.848 106.28 24.3941 108.081 24.3476C108.715 24.3305 109.721 24.2235 109.955 23.5517Z" fill="white"/>
<path d="M136.068 13.7928C137.636 12.3609 139.797 11.9519 141.775 12.5511C143.997 13.2246 144.575 15.5021 144.584 17.547C144.597 20.845 144.598 24.1435 144.588 27.4426C144.588 27.4747 144.572 27.4907 144.54 27.4907L140.25 27.4899C140.243 27.4899 140.237 27.4872 140.232 27.4823C140.227 27.4774 140.224 27.4707 140.224 27.4638C140.225 24.2431 140.224 21.0221 140.223 17.8009C140.222 16.0736 138.592 15.7683 137.379 16.4703C136.984 16.6989 136.589 16.9887 136.313 17.3438C136.295 17.3677 136.286 17.3947 136.286 17.4246V27.4491C136.286 27.4763 136.272 27.4899 136.245 27.4899H131.975C131.944 27.4899 131.928 27.4747 131.928 27.4442L131.92 12.387C131.92 12.3468 131.94 12.3266 131.98 12.3266H135.7C135.728 12.3266 135.744 12.34 135.75 12.3666L136.055 13.7887C136.055 13.79 136.056 13.7912 136.057 13.7922C136.058 13.7931 136.059 13.7939 136.06 13.7943C136.061 13.7947 136.063 13.7947 136.064 13.7945C136.065 13.7942 136.067 13.7936 136.068 13.7928Z" fill="white"/>
<path d="M158.674 17.8214V21.4173L151.285 21.4255C151.258 21.4255 151.245 21.4124 151.245 21.3863V18.6753C151.245 18.6492 151.258 18.6358 151.284 18.6353L154.325 18.6263C154.356 18.6263 154.372 18.6111 154.374 18.5806C154.478 16.8108 153.583 15.592 151.674 16.0035C150.515 16.2541 150.144 17.339 150.151 18.3888C150.159 19.7156 150.191 20.9194 150.247 22.0002C150.43 25.579 154.919 23.8133 156.656 22.9561C156.666 22.9511 156.678 22.9503 156.689 22.9538C156.7 22.9573 156.708 22.9649 156.714 22.9749L158.214 25.8696C158.228 25.8968 158.223 25.9191 158.198 25.9365C155.999 27.4554 153.558 28.0348 150.877 27.6745C150.448 27.6168 149.966 27.4846 149.433 27.2777C146.969 26.3202 145.905 24.2271 145.87 21.6884C145.846 20.0402 145.719 18.1945 146.095 16.6173C146.699 14.081 148.708 12.6182 151.223 12.3479C153.777 12.0737 156.48 12.7088 157.889 15.0271C158.401 15.868 158.662 16.7994 158.674 17.8214Z" fill="white"/>
<path d="M100.443 12.3267H96.0884C96.0622 12.3267 96.041 12.3479 96.041 12.374V27.5038C96.041 27.53 96.0622 27.5512 96.0884 27.5512H100.443C100.469 27.5512 100.49 27.53 100.49 27.5038V12.374C100.49 12.3479 100.469 12.3267 100.443 12.3267Z" fill="white"/>
<path d="M130.512 12.3267H126.141C126.12 12.3267 126.102 12.3442 126.102 12.3658V27.512C126.102 27.5336 126.12 27.5512 126.141 27.5512H130.512C130.533 27.5512 130.551 27.5336 130.551 27.512V12.3658C130.551 12.3442 130.533 12.3267 130.512 12.3267Z" fill="white"/>
<path d="M17.9747 47.9999H0.0498047L0.0587843 29.4978C0.0587843 29.4701 0.0699407 29.4478 0.0922537 29.4309C0.173886 29.3713 0.306948 29.3403 0.372254 29.3068C6.21498 26.3419 12.0531 23.3795 17.8865 20.4195C17.8961 20.4146 17.9067 20.4122 17.9174 20.4126C17.9281 20.413 17.9386 20.4162 17.9477 20.4217C17.9569 20.4273 17.9645 20.4351 17.9698 20.4444C17.9751 20.4537 17.9779 20.4643 17.978 20.475L17.9747 47.9999Z" fill="#0397D7"/>
<path d="M64.4719 38.1312C64.652 40.1157 67.2813 40.6729 68.0707 38.7355C68.0976 38.6693 68.1465 38.6423 68.2172 38.6547L69.1514 38.8264C69.162 38.8284 69.1722 38.8327 69.181 38.839C69.1899 38.8454 69.1973 38.8535 69.2027 38.8629C69.2081 38.8723 69.2115 38.8828 69.2125 38.8936C69.2135 38.9045 69.2122 38.9154 69.2086 38.9257C68.2491 41.7165 63.6589 41.3243 63.2785 38.3651C62.9418 35.7612 65.0964 34.2849 67.5035 34.9936C68.3989 35.2573 68.9617 35.8369 69.1918 36.7324C69.2131 36.8143 69.1822 36.862 69.0992 36.8755L68.1751 37.0303C68.1156 37.0404 68.078 37.0169 68.0623 36.9596C67.793 35.9783 66.9699 35.5524 65.9885 35.7426C64.8529 35.9648 64.3474 36.761 64.4719 38.1312Z" fill="white"/>
<path d="M141.291 39.897C140.681 40.5804 139.877 40.8727 138.879 40.774C135.527 40.4457 135.349 35.5896 138.616 34.8994C139.932 34.6217 141.745 35.0173 142.153 36.443C142.175 36.5227 142.145 36.5709 142.063 36.5877L141.215 36.7662C141.149 36.7796 141.102 36.7555 141.074 36.6938C140.336 35.0577 137.965 35.4229 137.542 37.0994C136.791 40.0872 140.663 41.0029 141.249 38.6228C141.255 38.5959 141.256 38.5678 141.25 38.5408C141.244 38.5137 141.232 38.4882 141.215 38.4664C141.198 38.4445 141.177 38.4268 141.152 38.4145C141.127 38.4022 141.1 38.3958 141.072 38.3955L139.498 38.3838C139.414 38.3838 139.37 38.3417 139.365 38.2575L139.331 37.734C139.325 37.6398 139.369 37.5926 139.463 37.5926H142.159C142.215 37.5926 142.244 37.6207 142.244 37.6768V40.5383C142.244 40.5944 142.215 40.6225 142.159 40.6225H141.513C141.441 40.6225 141.405 40.586 141.404 40.5131L141.4 39.9391C141.4 39.8302 141.364 39.8162 141.291 39.897Z" fill="white"/>
<path d="M51.0891 38.2324L51.1076 40.5654C51.1076 40.5729 51.1061 40.5804 51.1032 40.5873C51.1004 40.5943 51.0961 40.6006 51.0908 40.6059C51.0855 40.6112 51.0792 40.6154 51.0723 40.6183C51.0653 40.6212 51.0579 40.6226 51.0503 40.6226H50.0572C50.0421 40.6226 50.0275 40.6166 50.0168 40.6059C50.006 40.5952 50 40.5806 50 40.5654L50.0034 35.0141C50.0034 34.9989 50.0094 34.9843 50.0201 34.9736C50.0309 34.9629 50.0454 34.9568 50.0606 34.9568L54.4084 34.9434C54.416 34.9434 54.4234 34.9448 54.4303 34.9477C54.4373 34.9506 54.4436 34.9548 54.4489 34.9601C54.4542 34.9654 54.4584 34.9717 54.4613 34.9787C54.4642 34.9856 54.4657 34.9931 54.4657 35.0006L54.4606 35.7177C54.4606 35.7328 54.4546 35.7474 54.4439 35.7581C54.4331 35.7689 54.4186 35.7749 54.4034 35.7749L51.1631 35.7984C51.1482 35.7984 51.1339 35.8042 51.1232 35.8146C51.1126 35.825 51.1063 35.8391 51.1059 35.854L51.0739 37.3336C51.0737 37.3412 51.075 37.3489 51.0778 37.356C51.0806 37.3631 51.0847 37.3696 51.0901 37.3751C51.0954 37.3806 51.1018 37.385 51.1088 37.388C51.1159 37.391 51.1235 37.3925 51.1312 37.3925L54.2788 37.3588C54.294 37.3588 54.3086 37.3649 54.3193 37.3756C54.33 37.3863 54.3361 37.4009 54.3361 37.4161V38.1432C54.3361 38.1507 54.3346 38.1582 54.3317 38.1651C54.3288 38.1721 54.3246 38.1784 54.3193 38.1837C54.314 38.189 54.3077 38.1932 54.3007 38.1961C54.2938 38.199 54.2863 38.2004 54.2788 38.2004L51.148 38.1735C51.1402 38.1733 51.1324 38.1746 51.1252 38.1775C51.1179 38.1804 51.1113 38.1847 51.1058 38.1903C51.1003 38.1958 51.096 38.2024 51.0931 38.2096C51.0902 38.2169 51.0888 38.2246 51.0891 38.2324Z" fill="white"/>
<path d="M57.3333 39.3143L56.8604 40.5835C56.8562 40.5949 56.8486 40.6047 56.8387 40.6116C56.8288 40.6185 56.8169 40.6222 56.8048 40.6222H55.7141C55.7043 40.6222 55.6947 40.6197 55.6861 40.6151C55.6775 40.6104 55.6702 40.6037 55.6649 40.5955C55.6595 40.5873 55.6563 40.5779 55.6555 40.5682C55.6547 40.5585 55.6563 40.5487 55.6602 40.5397L58.0874 35.0035C58.092 34.993 58.0996 34.9841 58.1091 34.9778C58.1187 34.9715 58.1299 34.9682 58.1413 34.9682L59.3633 34.9614C59.3748 34.9615 59.386 34.9648 59.3955 34.9711C59.4051 34.9774 59.4126 34.9863 59.4172 34.9968L61.8428 40.5397C61.8467 40.5488 61.8484 40.5588 61.8475 40.5686C61.8466 40.5785 61.8432 40.588 61.8377 40.5962C61.8321 40.6044 61.8246 40.6111 61.8158 40.6157C61.807 40.6202 61.7971 40.6225 61.7872 40.6222H60.7116C60.6993 40.6221 60.6873 40.6182 60.6774 40.6109C60.6674 40.6037 60.66 40.5935 60.6561 40.5818L60.2201 39.316C60.2163 39.3043 60.2088 39.2941 60.1989 39.2869C60.1889 39.2796 60.1769 39.2757 60.1646 39.2756H57.3889C57.3768 39.2756 57.3649 39.2793 57.355 39.2862C57.3451 39.2931 57.3375 39.3029 57.3333 39.3143ZM59.2405 37.1917C59.0772 36.8282 58.9914 36.3989 58.8213 36.0135C58.7809 35.9203 58.7411 35.9209 58.7018 36.0151L57.7457 38.3161C57.7166 38.3868 57.7401 38.4233 57.8164 38.4256C58.2833 38.4435 58.7512 38.4463 59.2203 38.434C59.9811 38.4155 59.3768 37.4897 59.2405 37.1917Z" fill="white"/>
<path d="M72.6844 34.9594L71.6341 34.9576C71.6099 34.9576 71.5903 34.9771 71.5903 35.0013L71.5805 40.5829C71.5805 40.6071 71.6 40.6267 71.6242 40.6268L72.6745 40.6286C72.6987 40.6287 72.7183 40.6091 72.7184 40.5849L72.7281 35.0033C72.7282 34.9791 72.7086 34.9595 72.6844 34.9594Z" fill="white"/>
<path d="M76.6469 39.723L79.7205 39.7735C79.7339 39.7735 79.7467 39.7788 79.7562 39.7883C79.7657 39.7978 79.771 39.8106 79.771 39.824L79.7575 40.5714C79.7575 40.578 79.7562 40.5846 79.7537 40.5907C79.7511 40.5968 79.7474 40.6024 79.7427 40.6071C79.738 40.6118 79.7325 40.6155 79.7263 40.618C79.7202 40.6206 79.7137 40.6219 79.707 40.6219H75.509C75.5024 40.6219 75.4958 40.6206 75.4897 40.618C75.4835 40.6155 75.478 40.6118 75.4733 40.6071C75.4686 40.6024 75.4649 40.5968 75.4623 40.5907C75.4598 40.5846 75.4585 40.578 75.4585 40.5714L75.509 34.9931C75.509 34.9864 75.5103 34.9799 75.5128 34.9737C75.5154 34.9676 75.5191 34.9621 75.5238 34.9574C75.5285 34.9527 75.534 34.949 75.5402 34.9464C75.5463 34.9439 75.5529 34.9426 75.5595 34.9426L76.5459 34.9392C76.5593 34.9392 76.5721 34.9445 76.5816 34.954C76.5911 34.9635 76.5964 34.9763 76.5964 34.9897V39.6725C76.5964 39.6859 76.6017 39.6988 76.6112 39.7082C76.6206 39.7177 76.6335 39.723 76.6469 39.723Z" fill="white"/>
<path d="M83.0822 34.9583H82.1026C82.0589 34.9583 82.0234 34.9937 82.0234 35.0374V40.5416C82.0234 40.5853 82.0589 40.6207 82.1026 40.6207H83.0822C83.1259 40.6207 83.1613 40.5853 83.1613 40.5416V35.0374C83.1613 34.9937 83.1259 34.9583 83.0822 34.9583Z" fill="white"/>
<path d="M87.2749 35.8252H85.319C85.3047 35.8252 85.291 35.8195 85.2809 35.8094C85.2708 35.7993 85.2651 35.7856 85.2651 35.7713V35.0105C85.2651 34.9962 85.2708 34.9825 85.2809 34.9724C85.291 34.9623 85.3047 34.9566 85.319 34.9566L90.4243 34.9448C90.4383 34.9448 90.4518 34.9503 90.4618 34.96C90.4719 34.9697 90.4777 34.983 90.4782 34.997L90.4916 35.7696C90.4919 35.7768 90.4906 35.784 90.488 35.7907C90.4854 35.7975 90.4815 35.8036 90.4765 35.8088C90.4714 35.814 90.4654 35.8181 90.4588 35.8209C90.4521 35.8237 90.445 35.8252 90.4378 35.8252H88.4717C88.4574 35.8252 88.4437 35.8308 88.4336 35.8409C88.4235 35.851 88.4179 35.8647 88.4179 35.879L88.428 40.5686C88.428 40.5829 88.4223 40.5966 88.4122 40.6067C88.4021 40.6168 88.3884 40.6224 88.3741 40.6224H87.3776C87.3633 40.6224 87.3496 40.6168 87.3395 40.6067C87.3294 40.5966 87.3238 40.5829 87.3238 40.5686L87.3288 35.879C87.3288 35.8647 87.3231 35.851 87.313 35.8409C87.3029 35.8308 87.2892 35.8252 87.2749 35.8252Z" fill="white"/>
<path d="M95.1044 37.5351C95.5926 36.7485 96.0773 35.9584 96.5588 35.1651C96.7624 34.8301 97.4728 34.9328 97.8195 35.0119C97.8756 35.0242 97.888 35.0545 97.8566 35.1028C97.1776 36.1352 96.4982 37.1637 95.8181 38.1882C95.4327 38.7706 95.5673 39.858 95.6279 40.5212C95.6335 40.5885 95.6032 40.6222 95.537 40.6222H94.5288C94.476 40.6222 94.4519 40.5964 94.4564 40.5448C94.5035 39.863 94.6213 38.7706 94.2359 38.1764C93.5581 37.135 92.8769 36.0914 92.1924 35.0456C92.1862 35.0361 92.1826 35.0251 92.1822 35.0137C92.1817 35.0023 92.1844 34.991 92.1899 34.9809C92.1954 34.9708 92.2035 34.9623 92.2134 34.9562C92.2233 34.9501 92.2346 34.9467 92.2463 34.9463L93.2882 34.9395C93.3477 34.9384 93.3931 34.9631 93.4245 35.0136L94.9917 37.5351C95.0298 37.5957 95.0674 37.5957 95.1044 37.5351Z" fill="white"/>
<path d="M104.771 36.0203L104.807 40.5634C104.808 40.6195 104.78 40.6464 104.724 40.6442L103.817 40.6173C103.702 40.6128 103.686 40.5701 103.766 40.4893C103.779 40.4781 103.791 40.4669 103.802 40.4557C103.814 40.4433 103.82 40.4282 103.82 40.4102L103.824 35.0608C103.824 35.0002 103.854 34.9694 103.915 34.9683L105.322 34.9346C105.394 34.9335 105.442 34.966 105.467 35.0322L107.093 39.2841C107.123 39.3638 107.154 39.3638 107.185 39.2841L108.813 35.044C108.836 34.9823 108.881 34.9514 108.947 34.9514L110.402 34.9632C110.451 34.9632 110.476 34.9885 110.476 35.039L110.474 40.5381C110.474 40.5943 110.446 40.6223 110.388 40.6223H109.451C109.386 40.6223 109.354 40.5903 109.357 40.5264L109.474 36.1196C109.478 35.9715 109.453 35.9664 109.4 36.1045L107.682 40.5398C107.66 40.5948 107.621 40.6223 107.562 40.6223H106.672C106.61 40.6223 106.568 40.5931 106.546 40.5348L104.808 36.0119C104.783 35.9457 104.77 35.9485 104.771 36.0203Z" fill="white"/>
<path d="M117.113 39.276H114.542C114.51 39.2759 114.477 39.2856 114.45 39.3039C114.423 39.3222 114.402 39.3482 114.389 39.3787L113.921 40.525C113.894 40.59 113.846 40.6226 113.777 40.6226H112.82C112.742 40.6226 112.718 40.5867 112.75 40.5148L115.133 35.0847C115.157 35.0297 115.198 34.996 115.256 34.9837C115.637 34.904 116.015 34.9102 116.391 35.0022C116.457 35.019 116.503 35.0589 116.53 35.1217L118.892 40.5401C118.916 40.5951 118.898 40.6226 118.838 40.6226H117.848C117.788 40.6226 117.746 40.5945 117.724 40.5384L117.234 39.3568C117.212 39.3029 117.171 39.276 117.113 39.276ZM114.79 38.3519C114.787 38.36 114.785 38.3687 114.786 38.3774C114.787 38.3861 114.79 38.3944 114.795 38.4017C114.8 38.409 114.806 38.415 114.814 38.4192C114.821 38.4235 114.83 38.4258 114.839 38.4259L116.769 38.4428C116.778 38.4428 116.787 38.4407 116.794 38.4366C116.802 38.4326 116.809 38.4268 116.813 38.4197C116.818 38.4126 116.822 38.4044 116.823 38.3958C116.824 38.3873 116.823 38.3785 116.82 38.3704L115.876 35.9617C115.871 35.9519 115.865 35.9435 115.856 35.9377C115.847 35.9318 115.837 35.9287 115.826 35.9287C115.815 35.9287 115.805 35.9318 115.796 35.9377C115.787 35.9435 115.78 35.9519 115.776 35.9617L114.79 38.3519Z" fill="white"/>
<path d="M125.461 39.2671L125.446 35.0707C125.446 35.0124 125.475 34.9821 125.534 34.9798L126.352 34.9394C126.423 34.9361 126.459 34.9697 126.459 35.0404C126.467 36.7798 126.467 38.5135 126.459 40.2417C126.458 40.3505 126.477 40.4543 126.515 40.5531C126.538 40.6148 126.517 40.6451 126.451 40.644L125.315 40.6271C125.26 40.626 125.216 40.603 125.183 40.5581L122.118 36.3618C122.089 36.3214 122.074 36.3259 122.074 36.3753L122.095 40.5127C122.096 40.5856 122.06 40.6221 121.987 40.6221H121.157C121.098 40.6221 121.068 40.5929 121.068 40.5346L121.075 35.0674C121.075 34.9978 121.109 34.9641 121.179 34.9664C121.899 34.9866 122.181 34.756 122.664 35.4057C123.607 36.676 124.531 37.9659 125.434 39.2755C125.436 39.2779 125.439 39.2796 125.442 39.2805C125.445 39.2814 125.448 39.2814 125.451 39.2805C125.453 39.2796 125.456 39.2778 125.458 39.2754C125.46 39.273 125.461 39.2701 125.461 39.2671Z" fill="white"/>
<path d="M133.174 39.2725L130.43 39.2809C130.419 39.2808 130.408 39.2841 130.399 39.2904C130.39 39.2968 130.382 39.3057 130.378 39.3162L129.902 40.5871C129.898 40.5976 129.891 40.6066 129.881 40.6129C129.872 40.6192 129.861 40.6225 129.85 40.6224H128.772C128.763 40.6226 128.754 40.6205 128.746 40.6162C128.738 40.6119 128.73 40.6056 128.725 40.5979C128.72 40.5902 128.717 40.5814 128.716 40.5721C128.715 40.5629 128.717 40.5535 128.72 40.545L131.151 35.0138C131.155 35.0044 131.161 34.9963 131.17 34.9904C131.178 34.9844 131.188 34.9809 131.198 34.9802L132.378 34.9246C132.389 34.9241 132.401 34.927 132.41 34.933C132.42 34.939 132.427 34.9479 132.432 34.9583L134.889 40.545C134.893 40.5535 134.895 40.5629 134.894 40.5721C134.893 40.5814 134.89 40.5902 134.884 40.5979C134.879 40.6056 134.872 40.6119 134.864 40.6162C134.856 40.6205 134.847 40.6226 134.837 40.6224H133.76C133.749 40.6225 133.738 40.6192 133.728 40.6129C133.719 40.6066 133.712 40.5976 133.708 40.5871L133.226 39.3078C133.222 39.2973 133.215 39.2883 133.206 39.282C133.196 39.2757 133.185 39.2724 133.174 39.2725ZM130.771 38.35C130.767 38.3587 130.766 38.3681 130.766 38.3774C130.767 38.3867 130.77 38.3956 130.776 38.4034C130.781 38.4113 130.788 38.4177 130.796 38.4222C130.804 38.4266 130.813 38.429 130.823 38.4292L132.77 38.4393C132.779 38.439 132.788 38.4366 132.796 38.4322C132.804 38.4279 132.811 38.4216 132.816 38.414C132.821 38.4064 132.825 38.3978 132.826 38.3887C132.827 38.3796 132.826 38.3704 132.822 38.3618L131.861 35.9817C131.857 35.9712 131.85 35.9621 131.84 35.9558C131.831 35.9494 131.82 35.946 131.808 35.946C131.797 35.946 131.786 35.9494 131.776 35.9558C131.767 35.9621 131.759 35.9712 131.755 35.9817L130.771 38.35Z" fill="white"/>
<path d="M145.905 38.195V39.7671C145.905 39.7819 145.911 39.796 145.921 39.8064C145.932 39.8168 145.946 39.8227 145.96 39.8227H149.261C149.275 39.8226 149.289 39.828 149.299 39.8377C149.31 39.8474 149.316 39.8607 149.317 39.8749L149.349 40.5633C149.349 40.5709 149.348 40.5785 149.346 40.5856C149.343 40.5927 149.339 40.5993 149.334 40.6048C149.329 40.6103 149.322 40.6147 149.315 40.6177C149.308 40.6207 149.301 40.6222 149.293 40.6222H144.865C144.85 40.6222 144.836 40.6164 144.825 40.6059C144.815 40.5955 144.809 40.5814 144.809 40.5667L144.812 35.0069C144.812 34.9922 144.818 34.978 144.829 34.9676C144.839 34.9572 144.853 34.9513 144.868 34.9513L149.206 34.9463C149.22 34.9463 149.234 34.9519 149.244 34.962C149.255 34.972 149.261 34.9857 149.261 35.0002L149.288 35.7206C149.288 35.728 149.287 35.7354 149.284 35.7424C149.282 35.7493 149.278 35.7556 149.273 35.761C149.267 35.7663 149.261 35.7705 149.254 35.7734C149.247 35.7763 149.24 35.7778 149.233 35.7778L145.96 35.793C145.946 35.793 145.932 35.7988 145.921 35.8092C145.911 35.8197 145.905 35.8338 145.905 35.8485V37.2843C145.905 37.2991 145.911 37.3132 145.921 37.3236C145.932 37.334 145.946 37.3399 145.96 37.3399H149.103C149.111 37.3399 149.118 37.3414 149.125 37.3444C149.132 37.3474 149.138 37.3518 149.144 37.3573C149.149 37.3628 149.153 37.3694 149.155 37.3765C149.158 37.3836 149.159 37.3912 149.159 37.3988L149.113 38.0872C149.112 38.1014 149.106 38.1147 149.096 38.1244C149.085 38.1341 149.072 38.1394 149.058 38.1394H145.96C145.946 38.1394 145.932 38.1453 145.921 38.1557C145.911 38.1661 145.905 38.1802 145.905 38.195Z" fill="white"/>
<path d="M152.927 36.1552L152.934 40.5367C152.934 40.5939 152.906 40.6225 152.85 40.6225H152.007C151.95 40.6225 151.922 40.5945 151.922 40.5383V35.019C151.922 35.007 151.925 34.9951 151.929 34.984C151.934 34.973 151.941 34.963 151.949 34.9547C151.958 34.9463 151.968 34.9398 151.979 34.9356C151.99 34.9313 152.001 34.9293 152.013 34.9298L153.488 34.9718C153.535 34.973 153.567 34.996 153.585 35.0408L155.222 39.2338C155.257 39.3247 155.293 39.3242 155.328 39.2321L156.932 35.0509C156.958 34.9814 157.008 34.9466 157.083 34.9466L158.443 34.9399C158.534 34.9387 158.58 34.9842 158.581 35.0762L158.591 40.4811C158.593 40.5754 158.545 40.6225 158.45 40.6225H157.645C157.571 40.6225 157.537 40.5855 157.541 40.5114C157.645 38.739 157.423 37.352 157.642 36.135C157.644 36.1216 157.641 36.1079 157.633 36.0964C157.626 36.085 157.615 36.0766 157.602 36.0728C157.589 36.0691 157.575 36.0703 157.564 36.0761C157.552 36.082 157.542 36.0922 157.538 36.1047L155.807 40.5451C155.787 40.5967 155.749 40.6225 155.693 40.6225H154.782C154.732 40.6225 154.697 40.5989 154.68 40.5518L152.986 36.1451C152.947 36.0418 152.927 36.0452 152.927 36.1552Z" fill="white"/>
<path d="M162.527 39.8111L165.831 39.8279C165.845 39.8279 165.858 39.833 165.869 39.8424C165.879 39.8517 165.885 39.8646 165.887 39.8784L165.952 40.5618C165.953 40.5695 165.952 40.5773 165.95 40.5846C165.947 40.592 165.943 40.5987 165.938 40.6044C165.933 40.6101 165.926 40.6147 165.919 40.6178C165.912 40.6209 165.904 40.6225 165.897 40.6224H161.446C161.431 40.6224 161.417 40.6166 161.407 40.6062C161.396 40.5957 161.391 40.5816 161.391 40.5669V35.0004C161.391 34.9931 161.392 34.9859 161.395 34.9791C161.398 34.9724 161.402 34.9663 161.407 34.9611C161.412 34.9559 161.418 34.9518 161.425 34.9491C161.432 34.9463 161.439 34.9448 161.446 34.9448L165.784 34.9633C165.798 34.9633 165.812 34.9687 165.822 34.9784C165.832 34.9881 165.839 35.0014 165.839 35.0155L165.878 35.7242C165.879 35.7317 165.878 35.7393 165.875 35.7465C165.872 35.7536 165.868 35.7601 165.863 35.7656C165.858 35.7712 165.852 35.7756 165.845 35.7786C165.838 35.7816 165.83 35.7831 165.823 35.7831H162.54C162.526 35.7831 162.511 35.7889 162.501 35.7994C162.491 35.8098 162.485 35.8239 162.485 35.8386V37.2845C162.485 37.2993 162.491 37.3134 162.501 37.3238C162.511 37.3342 162.526 37.3401 162.54 37.3401H165.669C165.684 37.3401 165.698 37.3459 165.709 37.3564C165.719 37.3668 165.725 37.3809 165.725 37.3956V38.0807C165.725 38.0955 165.719 38.1096 165.709 38.12C165.698 38.1304 165.684 38.1363 165.669 38.1363L162.547 38.1464C162.533 38.1464 162.519 38.152 162.508 38.162C162.498 38.1721 162.492 38.1858 162.491 38.2002L162.471 39.7556C162.471 39.7703 162.477 39.7844 162.488 39.7948C162.498 39.8053 162.512 39.8111 162.527 39.8111Z" fill="white"/>
<path d="M172.923 39.2149L172.916 35.0757C172.916 35.023 172.943 34.9944 172.997 34.9899L173.768 34.9293C173.842 34.9237 173.879 34.9579 173.879 35.032L173.912 40.5463C173.912 40.5968 173.888 40.6221 173.838 40.6221H172.763C172.701 40.6221 172.652 40.5968 172.615 40.5463L169.543 36.3264C169.54 36.3231 169.537 36.3206 169.533 36.3194C169.529 36.3181 169.525 36.3182 169.521 36.3195C169.518 36.3209 169.514 36.3234 169.512 36.3268C169.51 36.3301 169.509 36.3342 169.509 36.3382L169.519 40.5564C169.519 40.6002 169.497 40.6221 169.452 40.6221H168.587C168.53 40.6221 168.502 40.594 168.502 40.5379V35.0774C168.502 35.037 168.522 35.0129 168.561 35.0051C168.96 34.9243 169.357 34.9237 169.753 35.0034C169.808 35.0146 169.852 35.0432 169.884 35.0892L172.874 39.23C172.906 39.276 172.923 39.271 172.923 39.2149Z" fill="white"/>
<path d="M177.997 35.825H176.049C176.034 35.825 176.02 35.819 176.009 35.8083C175.998 35.7975 175.992 35.783 175.992 35.7678V34.9918C175.992 34.9766 175.998 34.9621 176.009 34.9513C176.02 34.9406 176.034 34.9346 176.049 34.9346L181.165 34.975C181.18 34.9754 181.194 34.9816 181.204 34.9923C181.215 35.003 181.22 35.0173 181.22 35.0322L181.207 35.7695C181.206 35.7844 181.2 35.7985 181.19 35.8089C181.179 35.8192 181.165 35.825 181.15 35.825H179.197C179.182 35.825 179.167 35.831 179.157 35.8418C179.146 35.8525 179.14 35.8671 179.14 35.8822L179.167 40.5651C179.167 40.5802 179.161 40.5948 179.15 40.6055C179.139 40.6163 179.125 40.6223 179.11 40.6223H178.111C178.096 40.6223 178.082 40.6163 178.071 40.6055C178.06 40.5948 178.054 40.5802 178.054 40.5651V35.8822C178.054 35.8671 178.048 35.8525 178.037 35.8418C178.027 35.831 178.012 35.825 177.997 35.825Z" fill="white"/>
</svg>
