<svg width="120" height="120" viewBox="0 0 120 120" fill="none" xmlns="http://www.w3.org/2000/svg">
<rect width="120" height="120" rx="60" fill="black" fill-opacity="0.24"/>
<path d="M79.5586 57.4394L52.5645 40.9424C52.1098 40.6643 51.5892 40.5125 51.0563 40.5024C50.5235 40.4923 49.9976 40.6244 49.5327 40.885C49.0678 41.1456 48.6808 41.5254 48.4114 41.9853C48.142 42.4452 48 42.9685 48 43.5015V76.4985C48.0004 77.0313 48.1427 77.5544 48.4122 78.014C48.6817 78.4736 49.0687 78.8532 49.5334 79.1137C49.9981 79.3743 50.5238 79.5064 51.0565 79.4965C51.5892 79.4867 52.1097 79.3352 52.5645 79.0576L79.5586 62.5605C79.9971 62.2924 80.3594 61.9161 80.6108 61.4677C80.8621 61.0194 80.9941 60.514 80.9941 60C80.9941 59.486 80.8621 58.9806 80.6108 58.5322C80.3594 58.0839 79.9971 57.7076 79.5586 57.4394V57.4394Z" fill="white"/>
<circle cx="60" cy="60" r="50" stroke="white" stroke-width="3" stroke-linecap="round" stroke-dasharray="27 27"/>
</svg>
