<svg width="48" height="48" viewBox="0 0 48 48" fill="none" xmlns="http://www.w3.org/2000/svg">
<path d="M8.46111 36.7531C8.50787 36.9502 8.59404 37.1359 8.71443 37.2989C8.83482 37.4619 8.98694 37.5989 9.16164 37.7016C9.33634 37.8043 9.53001 37.8706 9.731 37.8965C9.93198 37.9223 10.1361 37.9073 10.3311 37.8522C19.2729 35.3834 28.7163 35.3825 37.6585 37.8497C37.8535 37.9047 38.0575 37.9197 38.2585 37.8938C38.4594 37.8679 38.653 37.8016 38.8276 37.699C39.0023 37.5964 39.1543 37.4595 39.2747 37.2966C39.3951 37.1337 39.4813 36.9481 39.5281 36.751L44.3073 16.4416C44.3713 16.1697 44.3581 15.8854 44.2692 15.6206C44.1803 15.3558 44.0192 15.1211 43.8041 14.9429C43.589 14.7647 43.3284 14.6501 43.0517 14.612C42.775 14.5739 42.4932 14.6138 42.238 14.7273L32.7535 18.9426C32.411 19.0948 32.024 19.1133 31.6685 18.9944C31.3131 18.8756 31.0151 18.628 30.8331 18.3003L25.3107 8.36016C25.1808 8.12632 24.9907 7.93148 24.7602 7.79582C24.5296 7.66016 24.267 7.58862 23.9995 7.58862C23.732 7.58862 23.4694 7.66016 23.2388 7.79582C23.0082 7.93148 22.8182 8.12632 22.6883 8.36016L17.1659 18.3003C16.9839 18.628 16.6859 18.8756 16.3304 18.9944C15.975 19.1133 15.588 19.0948 15.2455 18.9426L5.7596 14.7266C5.50441 14.6132 5.22262 14.5733 4.94597 14.6114C4.66932 14.6494 4.40878 14.7639 4.1937 14.9421C3.97861 15.1202 3.81751 15.3548 3.72855 15.6195C3.63958 15.8842 3.62628 16.1685 3.69013 16.4403L8.46111 36.7531Z" stroke="white" stroke-width="2" stroke-linecap="round" stroke-linejoin="round"/>
<path d="M18 30.3148C21.989 29.8951 26.011 29.8951 30 30.3148" stroke="white" stroke-width="2" stroke-linecap="round" stroke-linejoin="round"/>
</svg>
