<svg width="48" height="48" viewBox="0 0 48 48" fill="none" xmlns="http://www.w3.org/2000/svg">
<path d="M24 33.0005C28.9706 33.0005 33 28.9711 33 24.0005C33 19.0299 28.9706 15.0005 24 15.0005C19.0294 15.0005 15 19.0299 15 24.0005C15 28.9711 19.0294 33.0005 24 33.0005Z" stroke="white" stroke-width="2" stroke-linecap="round" stroke-linejoin="round"/>
<path d="M37.0128 15.122C37.4565 15.7734 37.8505 16.4572 38.1917 17.1676L43.0566 19.8683C43.6492 22.5898 43.6512 25.4067 43.0626 28.1291L38.195 30.8312C37.8527 31.5411 37.4575 32.2243 37.0129 32.875L37.1065 38.4384C35.0459 40.3124 32.6074 41.7226 29.9554 42.574L25.1815 39.7096C24.3956 39.7681 23.6063 39.7675 22.8205 39.7077L18.0492 42.5706C15.396 41.723 12.9555 40.3163 10.8921 38.4453L10.9858 32.8788C10.5422 32.2274 10.1481 31.5436 9.80694 30.8331L4.94202 28.1325C4.34947 25.411 4.34743 22.5941 4.93606 19.8717L9.80368 17.1696C10.146 16.4597 10.5411 15.7765 10.9858 15.1258L10.8922 9.56233C12.9528 7.68841 15.3913 6.27818 18.0432 5.42676L22.8172 8.29118C23.6031 8.23267 24.3923 8.23329 25.1782 8.29305L29.9495 5.43021C32.6026 6.27779 35.0432 7.6845 37.1065 9.55545L37.0128 15.122Z" stroke="white" stroke-width="2" stroke-linecap="round" stroke-linejoin="round"/>
</svg>
