<svg width="48" height="48" viewBox="0 0 48 48" fill="none" xmlns="http://www.w3.org/2000/svg">
<path d="M45.1346 22.8347L40.5 25.152L34.5 13.6616L39.1817 11.3207C39.5335 11.1448 39.9402 11.1141 40.3144 11.2352C40.6885 11.3563 41.0002 11.6195 41.1822 11.9681L45.7934 20.7987C45.8856 20.9753 45.9417 21.1685 45.9584 21.367C45.9752 21.5655 45.9522 21.7653 45.8909 21.9549C45.8296 22.1444 45.7311 22.3198 45.6012 22.4709C45.4714 22.6219 45.3127 22.7456 45.1346 22.8347V22.8347Z" stroke="white" stroke-width="2" stroke-linecap="round" stroke-linejoin="round"/>
<path d="M7.50085 24.951L2.86629 22.6338C2.68812 22.5447 2.52947 22.421 2.39962 22.2699C2.26976 22.1189 2.1713 21.9435 2.10997 21.7539C2.04864 21.5644 2.02568 21.3646 2.04242 21.1661C2.05916 20.9676 2.11527 20.7744 2.20747 20.5978L6.81864 11.7671C7.00067 11.4185 7.31231 11.1554 7.68647 11.0343C8.06062 10.9132 8.46736 10.9439 8.8191 11.1198L13.5008 13.4607L7.50085 24.951Z" stroke="white" stroke-width="2" stroke-linecap="round" stroke-linejoin="round"/>
<path d="M40.5 25.1519L37.5 28.6615L30.6005 35.561C30.4174 35.7441 30.1899 35.8767 29.9403 35.9459C29.6906 36.015 29.4274 36.0183 29.1761 35.9555L18.3092 33.2388C18.1053 33.1878 17.9145 33.0946 17.749 32.9652L7.5 24.9509" stroke="white" stroke-width="2" stroke-linecap="round" stroke-linejoin="round"/>
<path d="M37.4996 28.6616L29.2496 22.6616L26.8496 24.4616C25.811 25.2406 24.5478 25.6616 23.2496 25.6616C21.9514 25.6616 20.6882 25.2406 19.6496 24.4616L18.6332 23.6993C18.4613 23.5704 18.3191 23.406 18.2162 23.2173C18.1133 23.0286 18.0522 22.82 18.037 22.6057C18.0217 22.3913 18.0527 22.1762 18.1279 21.9748C18.203 21.7735 18.3206 21.5906 18.4725 21.4387L25.8103 14.101C25.9495 13.9617 26.1149 13.8512 26.2969 13.7758C26.4789 13.7004 26.6739 13.6616 26.8709 13.6616H34.4996" stroke="white" stroke-width="2" stroke-linecap="round" stroke-linejoin="round"/>
<path d="M13.6074 13.4607L23.2299 10.6554C23.5737 10.5552 23.9419 10.5812 24.2681 10.7288L30.7497 13.6617" stroke="white" stroke-width="2" stroke-linecap="round" stroke-linejoin="round"/>
<path d="M21 39.9115L15.3489 38.4988C15.1195 38.4414 14.907 38.3307 14.7286 38.1756L10.5 34.5" stroke="white" stroke-width="2" stroke-linecap="round" stroke-linejoin="round"/>
</svg>
