<svg width="48" height="48" viewBox="0 0 48 48" fill="none" xmlns="http://www.w3.org/2000/svg">
<path d="M16.5 43.5H31.5" stroke="white" stroke-width="2" stroke-linecap="round" stroke-linejoin="round"/>
<path d="M14.7569 31.3147C12.9733 29.9217 11.5287 28.1424 10.5316 26.1108C9.53455 24.0791 9.01096 21.8479 9.00023 19.5847C8.9553 11.4543 15.51 4.69566 23.6383 4.50435C26.7881 4.42851 29.8817 5.34635 32.4805 7.12768C35.0792 8.90901 37.0511 11.4634 38.1165 14.4285C39.1818 17.3936 39.2865 20.6188 38.4156 23.6467C37.5448 26.6747 35.7427 29.3515 33.2649 31.2976C32.7191 31.7204 32.2766 32.2618 31.9709 32.8808C31.6651 33.4998 31.5041 34.1802 31.5 34.8706L31.5 36.0001C31.5 36.3979 31.342 36.7795 31.0607 37.0608C30.7794 37.3421 30.3978 37.5001 30 37.5001H18C17.6022 37.5001 17.2206 37.3421 16.9393 37.0608C16.658 36.7795 16.5 36.3979 16.5 36.0001L16.5 34.8693C16.4982 34.1834 16.3404 33.5068 16.0384 32.891C15.7364 32.2751 15.2982 31.7361 14.7569 31.3147V31.3147Z" stroke="white" stroke-width="2" stroke-linecap="round" stroke-linejoin="round"/>
<path d="M25.5234 10.647C27.3581 10.9588 29.0508 11.8327 30.3675 13.1478C31.6843 14.4629 32.5602 16.1545 32.8743 17.9888" stroke="white" stroke-width="2" stroke-linecap="round" stroke-linejoin="round"/>
</svg>
