<svg width="48" height="48" viewBox="0 0 48 48" fill="none" xmlns="http://www.w3.org/2000/svg">
<path d="M24 33.75C28.1421 33.75 31.5 30.3921 31.5 26.25C31.5 22.1079 28.1421 18.75 24 18.75C19.8579 18.75 16.5 22.1079 16.5 26.25C16.5 30.3921 19.8579 33.75 24 33.75Z" stroke="white" stroke-width="2" stroke-linecap="round" stroke-linejoin="round"/>
<path d="M36.75 21.75C38.4967 21.7485 40.2197 22.1545 41.7821 22.9355C43.3444 23.7165 44.7031 24.8511 45.7502 26.2492" stroke="white" stroke-width="2" stroke-linecap="round" stroke-linejoin="round"/>
<path d="M2.25 26.2496C3.29708 24.8514 4.65581 23.7167 6.21824 22.9356C7.78067 22.1545 9.50373 21.7485 11.2505 21.75" stroke="white" stroke-width="2" stroke-linecap="round" stroke-linejoin="round"/>
<path d="M13.207 40.4998C14.1924 38.476 15.7269 36.7699 17.6354 35.5764C19.5439 34.3829 21.7496 33.75 24.0006 33.75C26.2516 33.75 28.4572 34.3829 30.3657 35.5764C32.2743 36.7699 33.8088 38.4759 34.7941 40.4998" stroke="white" stroke-width="2" stroke-linecap="round" stroke-linejoin="round"/>
<path d="M11.2508 21.75C10.1124 21.7498 8.99753 21.4257 8.0364 20.8156C7.07526 20.2055 6.30754 19.3345 5.82287 18.3044C5.3382 17.2743 5.15659 16.1276 5.29925 14.9981C5.44192 13.8687 5.90296 12.8031 6.62854 11.9259C7.35413 11.0486 8.31431 10.3959 9.39696 10.044C10.4796 9.69199 11.6401 9.6553 12.7428 9.93817C13.8455 10.221 14.845 10.8118 15.6246 11.6414C16.4041 12.4711 16.9315 13.5054 17.1453 14.6236" stroke="white" stroke-width="2" stroke-linecap="round" stroke-linejoin="round"/>
<path d="M30.8555 14.6237C31.0691 13.5054 31.5965 12.4709 32.3761 11.641C33.1556 10.8112 34.1552 10.2203 35.2581 9.9373C36.3609 9.65432 37.5215 9.69096 38.6044 10.0429C39.6872 10.3949 40.6475 11.0477 41.3732 11.925C42.0989 12.8024 42.56 13.8681 42.7026 14.9977C42.8453 16.1273 42.6636 17.2742 42.1788 18.3044C41.6941 19.3346 40.9262 20.2057 39.9649 20.8158C39.0036 21.4259 37.8885 21.7499 36.7499 21.75" stroke="white" stroke-width="2" stroke-linecap="round" stroke-linejoin="round"/>
</svg>
