<svg width="80" height="80" viewBox="0 0 80 80" fill="none" xmlns="http://www.w3.org/2000/svg">
<path d="M40 49.75C44.1421 49.75 47.5 46.3921 47.5 42.25C47.5 38.1079 44.1421 34.75 40 34.75C35.8579 34.75 32.5 38.1079 32.5 42.25C32.5 46.3921 35.8579 49.75 40 49.75Z" stroke="white" stroke-width="2" stroke-linecap="round" stroke-linejoin="round"/>
<path d="M52.75 37.75C54.4967 37.7485 56.2197 38.1545 57.7821 38.9355C59.3444 39.7165 60.7031 40.8511 61.7502 42.2492" stroke="white" stroke-width="2" stroke-linecap="round" stroke-linejoin="round"/>
<path d="M18.2495 42.2496C19.2966 40.8514 20.6553 39.7167 22.2178 38.9356C23.7802 38.1545 25.5032 37.7485 27.25 37.75" stroke="white" stroke-width="2" stroke-linecap="round" stroke-linejoin="round"/>
<path d="M29.2065 56.4998C30.1919 54.476 31.7264 52.7699 33.6349 51.5764C35.5435 50.3829 37.7491 49.75 40.0001 49.75C42.2511 49.75 44.4567 50.3829 46.3652 51.5764C48.2738 52.7699 49.8083 54.4759 50.7937 56.4998" stroke="white" stroke-width="2" stroke-linecap="round" stroke-linejoin="round"/>
<path d="M27.2499 37.75C26.1114 37.7498 24.9966 37.4257 24.0354 36.8156C23.0743 36.2055 22.3066 35.3345 21.8219 34.3044C21.3372 33.2743 21.1556 32.1276 21.2983 30.9981C21.4409 29.8687 21.902 28.8031 22.6276 27.9259C23.3532 27.0486 24.3133 26.3959 25.396 26.044C26.4786 25.692 27.6391 25.6553 28.7418 25.9382C29.8445 26.221 30.844 26.8118 31.6236 27.6414C32.4031 28.4711 32.9306 29.5054 33.1443 30.6236" stroke="white" stroke-width="2" stroke-linecap="round" stroke-linejoin="round"/>
<path d="M46.8555 30.6237C47.0691 29.5054 47.5965 28.4709 48.3761 27.641C49.1556 26.8112 50.1552 26.2203 51.2581 25.9373C52.3609 25.6543 53.5215 25.691 54.6044 26.0429C55.6872 26.3949 56.6475 27.0477 57.3732 27.925C58.0989 28.8024 58.56 29.8681 58.7026 30.9977C58.8453 32.1273 58.6636 33.2742 58.1788 34.3044C57.6941 35.3346 56.9262 36.2057 55.9649 36.8158C55.0036 37.4259 53.8885 37.7499 52.7499 37.75" stroke="white" stroke-width="2" stroke-linecap="round" stroke-linejoin="round"/>
</svg>
