<svg width="80" height="80" viewBox="0 0 80 80" fill="none" xmlns="http://www.w3.org/2000/svg">
<path d="M61.1346 38.8347L56.5 41.152L50.5 29.6616L55.1817 27.3207C55.5335 27.1448 55.9402 27.1141 56.3144 27.2352C56.6885 27.3563 57.0002 27.6195 57.1822 27.9681L61.7934 36.7987C61.8856 36.9753 61.9417 37.1685 61.9584 37.367C61.9752 37.5655 61.9522 37.7653 61.8909 37.9549C61.8296 38.1444 61.7311 38.3198 61.6012 38.4709C61.4714 38.6219 61.3127 38.7456 61.1346 38.8347V38.8347Z" stroke="white" stroke-width="2" stroke-linecap="round" stroke-linejoin="round"/>
<path d="M23.4999 40.951L18.8653 38.6338C18.6871 38.5447 18.5285 38.421 18.3986 38.2699C18.2688 38.1189 18.1703 37.9435 18.109 37.7539C18.0477 37.5644 18.0247 37.3646 18.0414 37.1661C18.0582 36.9676 18.1143 36.7744 18.2065 36.5978L22.8177 27.7671C22.9997 27.4185 23.3113 27.1554 23.6855 27.0343C24.0596 26.9132 24.4664 26.9439 24.8181 27.1198L29.4999 29.4607L23.4999 40.951Z" stroke="white" stroke-width="2" stroke-linecap="round" stroke-linejoin="round"/>
<path d="M56.5 41.1519L53.5 44.6615L46.6005 51.561C46.4174 51.7441 46.1899 51.8767 45.9403 51.9459C45.6906 52.015 45.4274 52.0183 45.1761 51.9555L34.3092 49.2388C34.1053 49.1878 33.9145 49.0946 33.749 48.9652L23.5 40.9509" stroke="white" stroke-width="2" stroke-linecap="round" stroke-linejoin="round"/>
<path d="M53.5001 44.6616L45.2501 38.6616L42.8501 40.4616C41.8115 41.2406 40.5483 41.6616 39.2501 41.6616C37.9519 41.6616 36.6887 41.2406 35.6501 40.4616L34.6337 39.6993C34.4618 39.5704 34.3196 39.406 34.2167 39.2173C34.1138 39.0286 34.0527 38.82 34.0375 38.6057C34.0222 38.3913 34.0532 38.1762 34.1284 37.9748C34.2035 37.7735 34.3211 37.5906 34.473 37.4387L41.8107 30.101C41.95 29.9617 42.1154 29.8512 42.2974 29.7758C42.4794 29.7004 42.6744 29.6616 42.8714 29.6616H50.5001" stroke="white" stroke-width="2" stroke-linecap="round" stroke-linejoin="round"/>
<path d="M29.6079 29.4607L39.2304 26.6554C39.5741 26.5552 39.9424 26.5812 40.2686 26.7288L46.7502 29.6617" stroke="white" stroke-width="2" stroke-linecap="round" stroke-linejoin="round"/>
<path d="M37 55.9115L31.3489 54.4988C31.1195 54.4414 30.907 54.3307 30.7286 54.1756L26.5 50.5" stroke="white" stroke-width="2" stroke-linecap="round" stroke-linejoin="round"/>
</svg>
