<svg width="80" height="80" viewBox="0 0 80 80" fill="none" xmlns="http://www.w3.org/2000/svg">
<path d="M40 49.0004C44.9706 49.0004 49 44.9709 49 40.0004C49 35.0298 44.9706 31.0004 40 31.0004C35.0294 31.0004 31 35.0298 31 40.0004C31 44.9709 35.0294 49.0004 40 49.0004Z" stroke="white" stroke-width="2" stroke-linecap="round" stroke-linejoin="round"/>
<path d="M53.0138 31.122C53.4574 31.7734 53.8515 32.4572 54.1927 33.1676L59.0576 35.8683C59.6502 38.5898 59.6522 41.4067 59.0636 44.1291L54.196 46.8312C53.8537 47.5411 53.4585 48.2243 53.0138 48.875L53.1075 54.4384C51.0469 56.3124 48.6083 57.7226 45.9564 58.574L41.1825 55.7096C40.3965 55.7681 39.6073 55.7675 38.8215 55.7077L34.0502 58.5706C31.397 57.723 28.9564 56.3163 26.8931 54.4453L26.9868 48.8788C26.5432 48.2274 26.1491 47.5436 25.8079 46.8331L20.943 44.1325C20.3504 41.411 20.3484 38.5941 20.937 35.8717L25.8047 33.1696C26.147 32.4597 26.5421 31.7765 26.9868 31.1258L26.8931 25.5623C28.9538 23.6884 31.3923 22.2782 34.0442 21.4268L38.8181 24.2912C39.6041 24.2327 40.3933 24.2333 41.1792 24.293L45.9504 21.4302C48.6036 22.2778 51.0442 23.6845 53.1075 25.5554L53.0138 31.122Z" stroke="white" stroke-width="2" stroke-linecap="round" stroke-linejoin="round"/>
</svg>
