<svg width="80" height="80" viewBox="0 0 80 80" fill="none" xmlns="http://www.w3.org/2000/svg">
<path d="M24.4616 52.7531C24.5084 52.9502 24.5945 53.1359 24.7149 53.2989C24.8353 53.4619 24.9874 53.5989 25.1621 53.7016C25.3368 53.8043 25.5305 53.8706 25.7315 53.8965C25.9325 53.9223 26.1366 53.9073 26.3316 53.8522C35.2734 51.3834 44.7168 51.3825 53.659 53.8497C53.854 53.9047 54.058 53.9197 54.2589 53.8938C54.4599 53.8679 54.6535 53.8016 54.8281 53.699C55.0027 53.5964 55.1548 53.4595 55.2752 53.2966C55.3956 53.1337 55.4818 52.9481 55.5286 52.751L60.3078 32.4416C60.3717 32.1697 60.3585 31.8854 60.2696 31.6206C60.1807 31.3558 60.0197 31.1211 59.8046 30.9429C59.5895 30.7647 59.3289 30.6501 59.0522 30.612C58.7755 30.5739 58.4937 30.6138 58.2384 30.7273L48.754 34.9426C48.4115 35.0948 48.0245 35.1133 47.669 34.9944C47.3136 34.8756 47.0155 34.628 46.8335 34.3003L41.3112 24.3602C41.1813 24.1263 40.9912 23.9315 40.7607 23.7958C40.5301 23.6602 40.2675 23.5886 40 23.5886C39.7325 23.5886 39.4698 23.6602 39.2393 23.7958C39.0087 23.9315 38.8187 24.1263 38.6887 24.3602L33.1664 34.3003C32.9844 34.628 32.6864 34.8756 32.3309 34.9944C31.9755 35.1133 31.5885 35.0948 31.246 34.9426L21.7601 30.7266C21.5049 30.6132 21.2231 30.5733 20.9465 30.6114C20.6698 30.6494 20.4093 30.7639 20.1942 30.9421C19.9791 31.1202 19.818 31.3548 19.729 31.6195C19.6401 31.8842 19.6268 32.1685 19.6906 32.4403L24.4616 52.7531Z" stroke="white" stroke-width="2" stroke-linecap="round" stroke-linejoin="round"/>
<path d="M34 46.3148C37.989 45.8951 42.011 45.8951 46 46.3148" stroke="white" stroke-width="2" stroke-linecap="round" stroke-linejoin="round"/>
</svg>
