<svg width="80" height="80" viewBox="0 0 80 80" fill="none" xmlns="http://www.w3.org/2000/svg">
<path d="M32.5 59.5H47.5" stroke="white" stroke-width="2" stroke-linecap="round" stroke-linejoin="round"/>
<path d="M30.7569 47.3147C28.9733 45.9217 27.5287 44.1424 26.5316 42.1108C25.5345 40.0791 25.011 37.8479 25.0002 35.5847C24.9553 27.4543 31.51 20.6957 39.6383 20.5043C42.7881 20.4285 45.8817 21.3463 48.4805 23.1277C51.0792 24.909 53.0511 27.4634 54.1165 30.4285C55.1818 33.3936 55.2865 36.6188 54.4156 39.6467C53.5448 42.6747 51.7427 45.3515 49.2649 47.2976C48.7191 47.7204 48.2766 48.2618 47.9709 48.8808C47.6651 49.4998 47.5041 50.1802 47.5 50.8706L47.5 52.0001C47.5 52.3979 47.342 52.7795 47.0607 53.0608C46.7794 53.3421 46.3978 53.5001 46 53.5001H34C33.6022 53.5001 33.2206 53.3421 32.9393 53.0608C32.658 52.7795 32.5 52.3979 32.5 52.0001L32.5 50.8693C32.4982 50.1834 32.3404 49.5068 32.0384 48.891C31.7364 48.2751 31.2982 47.7361 30.7569 47.3147V47.3147Z" stroke="white" stroke-width="2" stroke-linecap="round" stroke-linejoin="round"/>
<path d="M41.5229 26.647C43.3577 26.9588 45.0503 27.8327 46.367 29.1478C47.6838 30.4629 48.5597 32.1545 48.8738 33.9888" stroke="white" stroke-width="2" stroke-linecap="round" stroke-linejoin="round"/>
</svg>
