<svg width="80" height="80" viewBox="0 0 80 80" fill="none" xmlns="http://www.w3.org/2000/svg">
<path d="M40 58C49.9411 58 58 49.9411 58 40C58 30.0589 49.9411 22 40 22C30.0589 22 22 30.0589 22 40C22 49.9411 30.0589 58 40 58Z" stroke="white" stroke-width="2" stroke-linecap="round" stroke-linejoin="round"/>
<path d="M33.25 38.5C34.4926 38.5 35.5 37.4926 35.5 36.25C35.5 35.0074 34.4926 34 33.25 34C32.0074 34 31 35.0074 31 36.25C31 37.4926 32.0074 38.5 33.25 38.5Z" fill="white"/>
<path d="M46.75 38.5C47.9926 38.5 49 37.4926 49 36.25C49 35.0074 47.9926 34 46.75 34C45.5074 34 44.5 35.0074 44.5 36.25C44.5 37.4926 45.5074 38.5 46.75 38.5Z" fill="white"/>
<path d="M47.796 44.4995C47.0058 45.8679 45.8693 47.0041 44.5008 47.7941C43.1323 48.5841 41.58 49 39.9999 49C38.4197 49 36.8674 48.5841 35.4989 47.7942C34.1304 47.0042 32.9939 45.868 32.2036 44.4996" stroke="white" stroke-width="2" stroke-linecap="round" stroke-linejoin="round"/>
</svg>
