<svg width="200" height="68" viewBox="0 0 200 68" fill="none" xmlns="http://www.w3.org/2000/svg">
<path d="M113.474 56.0742C110.861 58.6072 108.008 58.2072 105.262 57.0074C102.356 55.7809 99.6895 55.7276 96.6232 57.0074C92.7837 58.6605 90.7573 58.1806 88.4642 56.0742C75.4525 42.6625 77.3723 22.2385 92.1438 21.4919C95.7433 21.6785 98.2497 23.465 100.356 23.6249C103.502 22.985 106.515 21.1453 109.875 21.3852C113.901 21.7052 116.941 23.305 118.94 26.1846C110.621 31.1707 112.595 42.1293 120.22 45.1956C118.7 49.1951 116.727 53.1679 113.448 56.1008L113.474 56.0742ZM100.089 21.3319C99.6895 15.386 104.516 10.4799 110.062 10C110.835 16.8791 103.822 21.9985 100.089 21.3319Z" fill="#777878"/>
</svg>
