<svg width="200" height="68" viewBox="0 0 200 68" fill="none" xmlns="http://www.w3.org/2000/svg">
<path d="M92.6272 11.3139C87.7746 12.9973 83.5898 16.1925 80.6874 20.43C77.7849 24.6676 76.3179 29.7242 76.5017 34.8572C76.6856 39.9901 78.5106 44.9289 81.7087 48.9479C84.9069 52.967 89.3095 55.8546 94.2701 57.1865C98.2917 58.2242 102.505 58.2698 106.548 57.3193C110.211 56.4966 113.597 54.7368 116.375 52.2123C119.267 49.5045 121.366 46.0598 122.446 42.2485C123.62 38.1039 123.829 33.7454 123.057 29.5074H100.474V38.8754H113.553C113.291 40.3696 112.731 41.7956 111.906 43.0682C111.08 44.3408 110.007 45.4338 108.749 46.2818C107.152 47.3387 105.352 48.0495 103.464 48.3687C101.57 48.7208 99.6278 48.7208 97.7342 48.3687C95.8149 47.9723 93.9993 47.1801 92.4033 46.0428C89.8389 44.2276 87.9135 41.6487 86.9016 38.6743C85.873 35.6442 85.873 32.3592 86.9016 29.3291C87.6219 27.2051 88.8125 25.2712 90.3848 23.6718C92.184 21.8079 94.4618 20.4755 96.9684 19.8209C99.475 19.1664 102.113 19.2148 104.594 19.961C106.532 20.5557 108.305 21.5951 109.77 22.9964C111.244 21.5293 112.717 20.0584 114.186 18.5837C114.945 17.7907 115.772 17.0357 116.52 16.2237C114.283 14.1426 111.658 12.5232 108.795 11.4581C103.58 9.56473 97.8745 9.51384 92.6272 11.3139Z" fill="#777878"/>
</svg>
