<svg width="200" height="68" viewBox="0 0 200 68" fill="none" xmlns="http://www.w3.org/2000/svg">
<path d="M123.972 31.4046C123.706 23.7432 121.696 17.5738 117.154 14.2055C112.612 10.8371 105.786 9.6708 97.2107 10.0776C93.3095 10.2652 89.7985 10.7741 86.945 11.9149C84.0059 13.0947 81.7303 14.7609 80.0657 17.0755C76.7198 21.7273 75.6871 28.7552 76.0549 36.8474C76.4061 44.5328 78.392 50.6151 82.9897 53.9294C87.5634 57.2287 94.9907 58.2764 102.825 57.9402C110.425 57.619 116.6 55.6106 119.907 51.0053C123.206 46.4076 124.254 39.6303 123.972 31.4061V31.4046ZM89.1966 39.5433H88.2044V37.4163H89.1966C91.0879 37.4163 92.4719 35.9543 92.4719 34.141C92.4721 33.7108 92.3875 33.2848 92.223 32.8874C92.0584 32.4899 91.8172 32.1287 91.513 31.8246C91.2088 31.5204 90.8477 31.2791 90.4502 31.1146C90.0528 30.9501 89.6268 30.8655 89.1966 30.8657H85.9993C85.9429 30.8657 85.888 30.8839 85.8428 30.9178C85.7976 30.9516 85.7646 30.9992 85.7487 31.0533V42.6625H83.6847V31.0533C83.6847 29.7789 84.725 28.7387 85.9993 28.7387H89.1966C92.1837 28.7387 94.6529 31.1629 94.6529 34.141C94.6529 37.1281 92.3473 39.5433 89.1966 39.5433ZM106.615 39.5433H104.527V33.9849C104.48 32.4133 102.814 30.8492 101.04 30.8492C99.0465 30.8492 97.5845 32.5529 97.5845 34.141C97.5845 36.4001 99.1711 37.4328 101.04 37.4328H101.783V39.5433H101.04C97.9673 39.5433 95.465 37.5724 95.465 34.141C95.465 31.3505 97.9673 28.7387 101.04 28.7387C103.823 28.7387 106.528 31.0758 106.615 33.9849V39.5433ZM109.266 29.0974L111.987 34.6799L110.807 37.0801L106.906 29.0974H109.266ZM111.79 43.0452H109.422L116.279 29.0974H118.647L111.79 43.0452Z" fill="#777878"/>
</svg>
