<svg width="200" height="68" viewBox="0 0 200 68" fill="none" xmlns="http://www.w3.org/2000/svg">
<path d="M69.5166 10C63.1514 10 57.0469 12.5286 52.546 17.0294C48.0452 21.5303 45.5166 27.6348 45.5166 34C45.5166 40.3652 48.0452 46.4697 52.546 50.9706C57.0469 55.4714 63.1514 58 69.5166 58C75.801 57.8778 81.7867 55.2955 86.1878 50.8079C90.5889 46.3203 93.0543 40.2855 93.0543 34C93.0543 27.7145 90.5889 21.6797 86.1878 17.1921C81.7867 12.7045 75.801 10.1222 69.5166 10ZM69.5166 13.9047C69.7436 13.9047 70.2249 13.9047 70.4701 13.9137V15.7889C70.1523 15.7821 69.8345 15.7775 69.5166 15.7753C67.1243 15.7693 64.7545 16.2377 62.5443 17.1534C60.3341 18.0691 58.3275 19.4139 56.6403 21.1101C54.9433 22.7966 53.598 24.8032 52.6822 27.0135C51.7665 29.2238 51.2985 31.5939 51.3055 33.9864C51.3055 38.8536 53.1988 43.4302 56.6403 46.8627C58.3275 48.5588 60.3341 49.9037 62.5443 50.8194C64.7545 51.7351 67.1243 52.2035 69.5166 52.1975C74.133 52.189 78.5747 50.432 81.9471 47.2804C85.3195 44.1287 87.3721 39.8165 87.6914 35.2123V34.9398H75.2601V33.0783H88.7947L89.5983 33.0738V33.9864C89.6067 36.6245 89.0917 39.2381 88.0833 41.6759C87.0748 44.1137 85.5929 46.3272 83.7232 48.1884C81.8607 50.0596 79.6459 51.5431 77.2066 52.5531C74.7674 53.563 72.1521 54.0795 69.5121 54.0726C64.1545 54.0726 59.1148 51.9841 55.3009 48.1884C53.4321 46.3268 51.951 44.1131 50.9433 41.6754C49.9356 39.2376 49.4214 36.6242 49.4303 33.9864C49.4363 28.6606 51.5544 23.5546 55.3198 19.7883C59.0853 16.0219 64.1908 13.9028 69.5166 13.8956V13.9047ZM142.447 17.891C132.413 17.891 127.137 23.3712 127.137 33.8184C127.137 44.2157 131.905 49.8456 142.393 49.8456C147.206 49.8456 151.923 48.6198 154.484 46.8263V31.7707H142.043V37.5551H147.878V42.9807C146.802 43.3893 144.699 43.8025 142.702 43.8025C136.254 43.8025 134.102 40.5244 134.102 33.8683C134.102 27.521 136.145 23.7798 142.602 23.7798C146.189 23.7798 148.232 24.9058 149.925 27.0579L154.384 22.9625C151.669 19.0715 146.906 17.891 142.443 17.891H142.447ZM104.25 18.3541V49.3825H126.27V43.3439H111.424V18.3496L104.25 18.3541ZM61.8526 23.4529C62.6172 23.4529 63.3506 23.7566 63.8912 24.2973C64.4319 24.838 64.7357 25.5713 64.7357 26.336C64.7357 27.1006 64.4319 27.834 63.8912 28.3746C63.3506 28.9153 62.6172 29.2191 61.8526 29.2191C61.0879 29.2191 60.3546 28.9153 59.8139 28.3746C59.2733 27.834 58.9695 27.1006 58.9695 26.336C58.9695 25.5713 59.2733 24.838 59.8139 24.2973C60.3546 23.7566 61.0879 23.4529 61.8526 23.4529ZM68.5631 23.462H70.4701V42.622H75.2465V44.5017H68.5631V23.462Z" fill="#777878"/>
</svg>
