<svg width="200" height="68" viewBox="0 0 200 68" fill="none" xmlns="http://www.w3.org/2000/svg">
<path d="M100 57.998H99.292L104.212 44.508H110.956C112.15 44.508 113.454 43.612 113.864 42.494L119.192 27.886C120.05 25.502 118.708 23.526 116.136 23.526H106.746L94.446 57.366C83.866 54.828 76 45.324 76 33.998C76 23.004 83.416 13.724 93.516 10.892L81.292 44.508H86.36L92.844 26.656H96.684L90.198 44.508H95.268L101.342 27.848C102.198 25.464 100.858 23.488 98.286 23.488H94L98.92 10.038C99.292 10.038 99.628 10 100 10C113.268 10 124 20.732 124 34C124 47.268 113.268 57.998 100 57.998ZM114.534 26.658H110.694L105.33 41.338H109.168L114.534 26.658Z" fill="#777878"/>
</svg>
