<svg width="200" height="48" viewBox="0 0 200 48" fill="none" xmlns="http://www.w3.org/2000/svg">
<path d="M159.672 10.8702L160.023 31.4351H159.847L153.893 10.8779H144.099V36.771H150.573L150.221 15.5114H150.397L156.779 36.771H166.145V10.8779L159.672 10.8702ZM36.3893 10.8702L31.4962 37.0382H38.5802L42.168 13.2366H42.3435L45.8474 37.0382H52.8397L48.0306 10.8779L36.3893 10.8702ZM75.939 10.8702L72.7023 30.8244H72.5268L69.2901 10.8779H58.626L58.0993 37.0382H64.6642L64.8397 13.5038H64.9237L69.2978 37.0382H75.9466L80.3207 13.5038H80.4962L80.6718 37.0382H87.2367L86.626 10.8779L75.939 10.8702ZM20.4733 29.6031C20.6723 30.2253 20.7013 30.8895 20.5573 31.5267C20.3817 32.3969 19.771 33.2748 18.0229 33.2748C16.3588 33.2748 15.397 32.313 15.397 30.9084V28.374H8.39697V30.3893C8.39697 36.2519 13.0306 38 17.939 38C22.6565 38 26.5955 36.3359 27.2061 32.0458C27.5573 29.771 27.2977 28.2901 27.2061 27.7634C25.9848 22.2519 16.0077 20.6718 15.3054 17.6107C15.218 17.1491 15.218 16.6753 15.3054 16.2137C15.4809 15.3359 16.0993 14.458 17.6718 14.458C19.2443 14.458 20.1145 15.4275 20.1145 16.8244V18.3969H26.6794V16.5649C26.6794 10.8779 21.5191 10 17.8474 10C13.2061 10 9.35881 11.5725 8.65651 15.7786C8.42678 16.9363 8.45807 18.1307 8.74812 19.2748C9.79392 24.6947 19.1603 26.2748 20.4733 29.5954M105.603 29.5954C105.863 30.2061 105.771 31 105.687 31.5267C105.512 32.3969 104.901 33.2748 103.153 33.2748C101.489 33.2748 100.527 32.313 100.527 30.9084V28.374H93.5268V30.3893C93.5268 36.1603 98.0764 37.9084 102.977 37.9084C107.702 37.9084 111.55 36.3359 112.16 31.9618C112.512 29.687 112.252 28.2901 112.16 27.6718C111.115 22.2519 101.221 20.5878 100.527 17.6107C100.439 17.1492 100.439 16.6752 100.527 16.2137C100.702 15.3359 101.313 14.458 102.893 14.458C104.374 14.458 105.336 15.4275 105.336 16.8244V18.3969H111.809V16.5649C111.809 10.8779 106.733 10 103.061 10C98.4275 10 94.6642 11.4885 93.9619 15.7786C93.7863 16.916 93.7863 17.9618 94.0535 19.2748C95.0993 24.6947 104.283 26.1832 105.603 29.5954ZM127.649 33.0992C129.481 33.0992 130.015 31.8779 130.183 31.1756C130.275 30.9084 130.275 30.4733 130.275 30.2137V10.8702H136.916V29.6794C136.916 30.2061 136.916 31.1679 136.84 31.4351C136.397 36.3282 132.55 37.9008 127.733 37.9008C122.924 37.9008 119.076 36.3282 118.634 31.4275C118.634 31.1679 118.55 30.2061 118.55 29.6794V10.8702H125.191V30.2061C125.191 30.5573 125.191 30.9008 125.283 31.1679C125.283 31.8626 125.817 33.0916 127.649 33.0916M182.244 32.8321C184.168 32.8321 184.779 31.6107 184.954 30.9008C185.038 30.6412 185.038 30.2061 185.038 29.9389V26.1756H182.328V22.3282H191.603V29.3282C191.603 29.855 191.603 30.2061 191.519 31.084C191.076 35.8931 186.962 37.5496 182.328 37.5496C177.695 37.5496 173.58 35.8931 173.145 31.0763C173.054 30.2061 173.054 29.855 173.054 29.3282V18.3053C173.054 17.8702 173.145 16.9924 173.145 16.5496C173.756 11.6565 177.695 10.084 182.328 10.084C186.962 10.084 190.992 11.6565 191.512 16.5572C191.603 17.3435 191.603 18.3053 191.603 18.3053V19.1832H185.038V17.6947C185.038 17.6947 185.038 17.084 184.954 16.7328C184.863 16.1221 184.344 14.8092 182.328 14.8092C180.405 14.8092 179.886 16.0305 179.702 16.7328C179.618 17.0763 179.618 17.5191 179.618 17.9542V29.9389C179.618 30.2901 179.618 30.6412 179.702 30.9008C179.702 31.6031 180.405 32.8321 182.244 32.8321Z" fill="#777878"/>
</svg>
