<svg width="200" height="48" viewBox="0 0 200 48" fill="none" xmlns="http://www.w3.org/2000/svg">
<path d="M122.759 10.8528V37.1521H126.706V10.8528H122.759ZM80.6277 10.4066C72.9422 10.4066 66.9822 15.9947 66.9822 24.0025C66.9822 32.3673 72.9422 37.5984 80.6277 37.5984C88.3132 37.5984 94.2831 32.3673 94.2682 24.0025C94.2829 22.2092 93.9397 20.431 93.2588 18.772C92.5779 17.1129 91.573 15.6063 90.3029 14.3403C89.0327 13.0743 87.5228 12.0743 85.8615 11.3989C84.2002 10.7234 82.4209 10.3861 80.6277 10.4066ZM90.3313 24.0025C90.3313 29.9277 85.9877 33.8548 80.6277 33.8548C75.2628 33.8548 70.9192 29.9277 70.9192 24.0025C70.9192 18.1813 75.2628 14.1502 80.6277 14.1502C85.9828 14.1502 90.3313 18.1813 90.3313 24.0025ZM40.4995 10V37.1521H44.5257V19.2077L65.4402 38V32.3722L40.4995 10ZM97.2334 24.0025L111.871 37.1521H117.741L103.084 24.0025L117.741 10.8528H111.871L97.2334 24.0025ZM159.501 37.1521H155.162L151.989 31.326H137.619L134.446 37.1521H130.107L135.363 27.4436H149.926L142.662 13.9568L144.804 10L159.501 37.1521Z" fill="#777878"/>
</svg>
