<svg width="200" height="68" viewBox="0 0 200 68" fill="none" xmlns="http://www.w3.org/2000/svg">
<path d="M116.432 57.4179V53.2028L116.348 53.2407C115.4 53.6998 114.368 53.9616 113.309 54.0109C112.214 54.0943 111.127 53.7745 110.251 53.1117C109.627 52.6299 109.162 51.9716 108.916 51.2223C108.65 50.4037 108.62 49.5268 108.828 48.6918C109.026 47.8381 109.504 47.0755 110.183 46.533C110.79 46.0246 111.53 45.7059 112.315 45.6148C113.702 45.4596 115.103 45.7211 116.341 46.366L116.432 46.4154V42.1775L116.238 42.1244C115 41.7292 113.701 41.5596 112.402 41.6236C111.22 41.6532 110.055 41.9189 108.976 42.4051C107.888 42.9059 106.928 43.6458 106.173 44.5715C105.021 46.0266 104.381 47.8214 104.354 49.6771C104.327 51.5328 104.913 53.3456 106.021 54.8342C107.14 56.2683 108.711 57.2813 110.479 57.7025C112.342 58.1577 114.296 58.0894 116.121 57.5052L116.432 57.4179ZM74.7168 57.4179V53.2028L74.6334 53.2407C73.6849 53.6998 72.6529 53.9616 71.5944 54.0109C70.4994 54.0954 69.4114 53.7755 68.5364 53.1117C67.9122 52.6306 67.448 51.972 67.2048 51.2223C66.9361 50.4043 66.9046 49.527 67.1137 48.6918C67.311 47.8381 67.7852 47.0755 68.4682 46.533C69.0752 46.0246 69.815 45.7059 70.6004 45.6148C71.987 45.4596 73.3885 45.7211 74.6258 46.366L74.7168 46.4154V42.1775L74.5233 42.1244C73.2851 41.7292 71.9859 41.5596 70.6876 41.6236C69.505 41.6536 68.3403 41.9193 67.2617 42.4051C66.1736 42.9049 65.2135 43.6457 64.4541 44.5715C63.3034 46.027 62.6646 47.8213 62.6365 49.6765C62.6084 51.5317 63.1925 53.3445 64.2986 54.8342C65.4167 56.2695 66.9903 57.2812 68.7603 57.7025C70.6231 58.1577 72.5732 58.0894 74.4019 57.5052L74.7168 57.4179ZM89.6044 53.9199L89.5892 57.5507L89.8548 57.5962C90.6895 57.7518 91.528 57.858 92.374 57.9187C93.1138 57.9908 93.8575 58.0022 94.6011 57.9642C95.3105 57.9111 96.0124 57.7783 96.6916 57.5697C97.4883 57.342 98.2281 56.9512 98.8579 56.4125C99.4265 55.9253 99.8613 55.3011 100.121 54.599C100.574 53.4253 100.564 52.1237 100.095 50.9568C99.8503 50.3496 99.4624 49.8106 98.9641 49.3861C98.4814 48.9544 97.9161 48.6253 97.3024 48.4186L94.5631 47.4018C94.236 47.2621 93.9705 47.0088 93.8157 46.6885C93.7559 46.5572 93.7276 46.4137 93.7328 46.2695C93.7381 46.1253 93.7769 45.9843 93.8461 45.8577C93.9868 45.6271 94.1892 45.4405 94.4303 45.3189C94.7373 45.1711 95.0669 45.0762 95.4054 45.0382C95.9859 44.9547 96.5739 44.9585 97.1506 45.0571C97.8335 45.133 98.5089 45.2506 99.1728 45.4213L99.317 45.4517V42.1016L99.0552 42.0447C98.3762 41.8822 97.6883 41.7593 96.9951 41.6767C96.0962 41.5591 95.186 41.5553 94.2862 41.6653C93.148 41.7677 92.0667 42.2078 91.1713 42.9173C90.5643 43.3954 90.1052 44.029 89.8396 44.7536C89.4451 45.8539 89.4413 47.0603 89.8396 48.1644C90.0445 48.7145 90.3708 49.2039 90.7957 49.6099C91.1637 49.9627 91.5811 50.2663 92.0363 50.5053C92.632 50.824 93.2656 51.0706 93.922 51.2451C94.1382 51.3096 94.3545 51.3779 94.5669 51.45L94.8894 51.5676L94.9805 51.6055C95.2992 51.7193 95.5951 51.9015 95.8379 52.1367C96.0086 52.296 96.1414 52.4933 96.2211 52.7096C96.2736 52.9096 96.2749 53.1197 96.2249 53.3204C96.1224 53.6441 95.896 53.9142 95.5951 54.0716C95.2682 54.2385 94.9155 54.3489 94.5518 54.3979C94.016 54.4813 93.473 54.508 92.9317 54.4776C92.2228 54.4221 91.5173 54.3284 90.8185 54.1968C90.4542 54.1179 90.0912 54.0332 89.7296 53.9426L89.6044 53.9199ZM80.2143 57.6949H84.198V41.8854H80.2143V57.6949ZM126.357 46.5557C126.78 46.211 127.267 45.9531 127.79 45.7967C128.313 45.6402 128.861 45.5884 129.404 45.644C129.947 45.6997 130.474 45.8618 130.954 46.1211C131.434 46.3804 131.859 46.7318 132.203 47.1552C132.549 47.5779 132.807 48.0646 132.964 48.5875C133.121 49.1103 133.174 49.6589 133.118 50.202C133.063 50.7451 132.901 51.2719 132.642 51.7523C132.383 52.2328 132.031 52.6573 131.608 53.0017L131.543 53.0548C130.679 53.7174 129.589 54.0146 128.509 53.8825C127.428 53.7505 126.442 53.1998 125.763 52.3487C125.084 51.4976 124.765 50.4141 124.876 49.3309C124.987 48.2477 125.519 47.2513 126.357 46.5557ZM120.571 49.7958C120.59 51.0298 120.884 52.244 121.43 53.3505C121.977 54.457 122.763 55.428 123.731 56.1933C124.699 56.9585 125.826 57.4987 127.029 57.7749C128.231 58.051 129.481 58.056 130.686 57.7897C132.303 57.4837 133.789 56.6933 134.946 55.5232C136.104 54.3532 136.878 52.8588 137.167 51.2385C137.455 49.6181 137.244 47.9483 136.562 46.4506C135.879 44.9529 134.757 43.6982 133.345 42.8528C132.09 42.0767 130.651 41.6462 129.176 41.605C127.701 41.5638 126.241 41.9133 124.944 42.6182C123.647 43.323 122.559 44.3581 121.791 45.6186C121.024 46.8791 120.602 48.3202 120.571 49.7958ZM141.586 29.1793C141.608 29.6871 141.825 30.1667 142.193 30.5181C142.56 30.8695 143.048 31.0657 143.557 31.0657C144.065 31.0657 144.554 30.8695 144.921 30.5181C145.288 30.1667 145.505 29.6871 145.528 29.1793V24.7973C145.505 24.2895 145.288 23.8099 144.921 23.4585C144.554 23.1071 144.065 22.9109 143.557 22.9109C143.048 22.9109 142.56 23.1071 142.193 23.4585C141.825 23.8099 141.608 24.2895 141.586 24.7973V29.1793ZM130.796 29.1793C130.833 29.6772 131.058 30.1424 131.424 30.4818C131.79 30.8212 132.271 31.0098 132.77 31.0098C133.27 31.0098 133.751 30.8212 134.117 30.4818C134.483 30.1424 134.707 29.6772 134.745 29.1793V19.3567C134.714 18.8546 134.493 18.3833 134.126 18.0388C133.759 17.6943 133.275 17.5025 132.772 17.5025C132.269 17.5025 131.785 17.6943 131.419 18.0388C131.052 18.3833 130.831 18.8546 130.799 19.3567L130.796 29.1793ZM119.846 33.1364C119.884 33.6333 120.108 34.0976 120.473 34.4363C120.839 34.775 121.319 34.9632 121.817 34.9632C122.315 34.9632 122.795 34.775 123.161 34.4363C123.526 34.0976 123.75 33.6333 123.788 33.1364V11.8864C123.766 11.3786 123.548 10.899 123.181 10.5476C122.814 10.1962 122.325 10 121.817 10C121.309 10 120.82 10.1962 120.453 10.5476C120.086 10.899 119.868 11.3786 119.846 11.8864V33.1364ZM109.079 29.1793C109.11 29.6814 109.331 30.1527 109.698 30.4973C110.065 30.8418 110.549 31.0336 111.052 31.0336C111.555 31.0336 112.039 30.8418 112.406 30.4973C112.772 30.1527 112.993 29.6814 113.025 29.1793V19.3567C113.002 18.8489 112.785 18.3694 112.418 18.0179C112.051 17.6665 111.562 17.4703 111.054 17.4703C110.545 17.4703 110.057 17.6665 109.69 18.0179C109.322 18.3694 109.105 18.8489 109.083 19.3567V29.1793M98.0802 29.1793C98.1282 29.6687 98.3566 30.1227 98.7209 30.453C99.0852 30.7832 99.5594 30.9662 100.051 30.9662C100.543 30.9662 101.017 30.7832 101.381 30.453C101.746 30.1227 101.974 29.6687 102.022 29.1793V24.7973C102 24.2895 101.782 23.8099 101.415 23.4585C101.048 23.1071 100.559 22.9109 100.051 22.9109C99.5429 22.9109 99.0542 23.1071 98.687 23.4585C98.3198 23.8099 98.1024 24.2895 98.0802 24.7973V29.1793ZM87.1914 29.1793C87.2137 29.6871 87.4311 30.1667 87.7983 30.5181C88.1655 30.8695 88.6541 31.0657 89.1624 31.0657C89.6707 31.0657 90.1593 30.8695 90.5265 30.5181C90.8937 30.1667 91.1111 29.6871 91.1334 29.1793V19.3567C91.1111 18.8489 90.8937 18.3694 90.5265 18.0179C90.1593 17.6665 89.6707 17.4703 89.1624 17.4703C88.6541 17.4703 88.1655 17.6665 87.7983 18.0179C87.4311 18.3694 87.2137 18.8489 87.1914 19.3567V29.1793ZM76.2382 33.1364C76.2605 33.6442 76.4779 34.1238 76.8451 34.4752C77.2123 34.8267 77.7009 35.0228 78.2092 35.0228C78.7175 35.0228 79.2061 34.8267 79.5733 34.4752C79.9405 34.1238 80.1579 33.6442 80.1802 33.1364V11.8864C80.1579 11.3786 79.9405 10.899 79.5733 10.5476C79.2061 10.1962 78.7175 10 78.2092 10C77.7009 10 77.2123 10.1962 76.8451 10.5476C76.4779 10.899 76.2605 11.3786 76.2382 11.8864V33.1364ZM65.3836 29.1793C65.427 29.6727 65.6536 30.1319 66.0188 30.4665C66.384 30.801 66.8612 30.9866 67.3565 30.9866C67.8518 30.9866 68.3291 30.801 68.6943 30.4665C69.0595 30.1319 69.2861 29.6727 69.3294 29.1793V19.3567C69.3071 18.8489 69.0897 18.3694 68.7225 18.0179C68.3553 17.6665 67.8667 17.4703 67.3584 17.4703C66.8502 17.4703 66.3615 17.6665 65.9943 18.0179C65.6271 18.3694 65.4097 18.8489 65.3874 19.3567V29.1793M54.4722 29.1793C54.51 29.6762 54.734 30.1404 55.0995 30.4792C55.4649 30.8179 55.9448 31.0061 56.4431 31.0061C56.9414 31.0061 57.4213 30.8179 57.7868 30.4792C58.1523 30.1404 58.3763 29.6762 58.4141 29.1793V24.7973C58.3918 24.2895 58.1744 23.8099 57.8072 23.4585C57.4401 23.1071 56.9514 22.9109 56.4431 22.9109C55.9349 22.9109 55.4462 23.1071 55.079 23.4585C54.7118 23.8099 54.4945 24.2895 54.4722 24.7973V29.1793Z" fill="#777878"/>
</svg>
